<?xml version="1.0" encoding="utf-8"?>
<!-- Generator: Adobe Illustrator 27.2.0, SVG Export Plug-In . SVG Version: 6.00 Build 0)  -->
<svg version="1.1" id="Слой_1" xmlns="http://www.w3.org/2000/svg" xmlns:xlink="http://www.w3.org/1999/xlink" x="0px" y="0px"
	 viewBox="0 0 961 861" style="enable-background:new 0 0 961 861;" xml:space="preserve">
<style type="text/css">
	.st0{fill:#FFFFFF;stroke:#FFFFFF;stroke-width:8;}
	.st1{fill:#D20D0D;stroke:#D20D0D;stroke-width:8;}
	.st2{fill:#FFFFFF;stroke:#FFFFFF;stroke-miterlimit:10;}
	.st3{fill:#980000;}
	.st4{fill:none;stroke:#FFFFFF;stroke-width:8;}
	.st5{fill:#D20D0D;}
</style>
<path class="st0" d="M568,466l59-56l278.5,277l-50,70.5L568,466z"/>
<path class="st1" d="M365.7,362.6c1-9-274,267.5-274,267.5c-5.8-28.3-9.5-48.3-17-92.5c-18.9-140,12.7-203.3,84-311
	c81-78.3,129.2-111.9,223.5-141s246.4,14.3,297,45c50.6,30.7,123,76,159.5,169s55,180.4,21.5,300.5l60.5,56
	c52.2-160.1,49-251.5-17.5-393s-166-194-252-229.5s-238-37-305-15.5s-155.9,53-254.5,166s-134,360.1,0,573.5l337.5-336.5v-16.5
	l24-21.5c15.8-17.1,25.1-23.2,45-13.5c20,13.9,25.5,24,12,51.5l33.5,30.5l69-68.5l-32.5-33c-13.8,10.3-21.9,14.6-41,0
	c-13.9-17-12.6-26.5,0-43.5l-58.5-56c-43.7-41-75.9-47.3-140-44c0,0-34.5,7.1-53,20l3.5,14.5c9.9-3.3,16.6-4.9,55,0
	c41.4,16.4,65.1,25.1,74,72.5c1.5,16.7-4.4,26-29,42.5C366.7,372.6,365.7,362.6,365.7,362.6z"/>
<path class="st2" d="M395,591.5l36-32.5l35.5,32.5l-35.5,37L395,591.5z"/>
<path class="st3" d="M497.5,591.5l34-32.5l36,32.5l-36,37L497.5,591.5z"/>
<path class="st4" d="M395,591.5l36-32.5l35.5,32.5l-35.5,37L395,591.5z"/>
<path class="st0" d="M497.5,591.5l34-32.5l36,32.5l-36,37L497.5,591.5z"/>
<path class="st2" d="M395.5,694.5l36-32.5l35.5,32.5l-35.5,37L395.5,694.5z"/>
<path class="st2" d="M498,694.5l34-32.5l36,32.5l-36,37L498,694.5z"/>
<path class="st4" d="M395.5,694.5l36-32.5l35.5,32.5l-35.5,37L395.5,694.5z"/>
<path class="st4" d="M498,694.5l34-32.5l36,32.5l-36,37L498,694.5z"/>
<g>
	<path class="st5" d="M182.7,828.6h-14.4v-36.4h-0.6L155,828.6h-14.4l-12.7-36.4h-0.6v36.4h-14.4v-51.8h23.3l11.6,35.9l11.6-35.9
		h23.3L182.7,828.6L182.7,828.6z"/>
	<path class="st5" d="M188.9,792.7c0.9-13.3,12.7-17.4,26-17.4c13.9,0,24.9,4.5,24.9,17.9v35.4h-15.5v-10h-0.6
		c0,0-3.5,11.5-18.3,11.5c-10.5,0-18.3-4.4-18.3-13.9c0-9.7,8.9-14,18.4-16.2c9.6-2.2,18.7-2.9,18.7-8.7c0-4.1-3.3-6.5-9.4-6.5
		c-6.7,0-10.3,2.4-10.5,8L188.9,792.7L188.9,792.7z M212.1,806.7c-5,1.1-9.2,3.4-9.2,8c0,4,3.1,6.5,8.1,6.5
		c10.5,0,13.3-11,13.3-18.6C221.8,804.6,216.6,805.7,212.1,806.7z"/>
	<path class="st5" d="M273.7,775.3c25.5,0,27.2,20.4,27.2,20.4h-15.5c0,0-0.6-10-11.6-10c-9.9,0-13.3,7.6-13.3,16.9
		c0,9.4,3.4,16.9,13.3,16.9c11.1,0,11.6-10,11.6-10h15.5c0,0-1.7,20.4-27.2,20.4c-18.8,0-28.8-12.2-28.8-27.4
		C244.9,787.5,254.8,775.3,273.7,775.3z"/>
	<path class="st5" d="M339.7,799.7c0-9-2-12.9-8.1-12.9c-6.7,0-10.2,4.5-10.2,14.9v26.9h-15.5v-51.8h15v8.5h0.6c0,0,3.9-10,15.5-10
		c9.3,0,14.3,4,16.5,10.1l0.1-0.1h0.6c0,0,5-10,16.6-10c14.4,0,18.3,9.5,18.3,21.4v31.9h-15.5v-28.9c0-9-2-12.9-8.1-12.9
		c-6.7,0-10.2,4.5-10.2,14.9v26.9h-15.5L339.7,799.7L339.7,799.7z"/>
	<path class="st5" d="M422.8,775.3c19,0,27.7,12.2,27.7,27.4c0,1.2-0.1,3-0.1,3h-40.8c0.7,8,4.4,13.9,13.7,13.9c9.4,0,11.1-8,11.1-8
		H450c0,0-3.3,18.4-27.2,18.4c-19.4,0-28.8-12.2-28.8-27.4C394,787.5,403.9,775.3,422.8,775.3z M410.1,796.7h24.5
		c-1-6.4-4.1-11-11.7-11C415.2,785.7,411.4,790.3,410.1,796.7z"/>
	<path class="st5" d="M455.6,776.8h15v7h0.6c0,0,5-8.5,17.7-8.5c16.6,0,24.9,12.9,24.9,27.4c0,14.4-8.3,27.4-24.9,27.4
		c-12.2,0-17.2-7-17.2-7h-0.6v23.4h-15.5L455.6,776.8L455.6,776.8z M484.4,819.6c9.4,0,13.9-7.6,13.9-16.9c0-9.4-4.4-16.9-13.9-16.9
		s-13.9,7.6-13.9,16.9S475,819.6,484.4,819.6z"/>
	<path class="st5" d="M547,775.3c25.5,0,27.2,20.4,27.2,20.4h-15.5c0,0-0.6-10-11.6-10c-9.9,0-13.3,7.6-13.3,16.9
		c0,9.4,3.4,16.9,13.3,16.9c11.1,0,11.6-10,11.6-10h15.5c0,0-1.7,20.4-27.2,20.4c-18.8,0-28.8-12.2-28.8-27.4
		C518.2,787.5,528.2,775.3,547,775.3z"/>
	<path class="st5" d="M613,799.7c0-9-2-12.9-8.1-12.9c-6.7,0-10.2,4.5-10.2,14.9v26.9h-15.5v-51.8h15v8.5h0.6c0,0,3.9-10,15.5-10
		c9.3,0,14.3,4,16.5,10.1l0.1-0.1h0.6c0,0,5-10,16.6-10c14.4,0,18.3,9.5,18.3,21.4v31.9h-15.5v-28.9c0-9-2-12.9-8.1-12.9
		c-6.7,0-10.2,4.5-10.2,14.9v26.9H613V799.7z"/>
	<path class="st5" d="M667.9,776.8h15v7h0.6c0,0,5-8.5,17.7-8.5c16.6,0,24.9,12.9,24.9,27.4c0,14.4-8.3,27.4-24.9,27.4
		c-12.2,0-17.2-7-17.2-7h-0.6v23.4h-15.5V776.8z M696.8,819.6c9.4,0,13.9-7.6,13.9-16.9c0-9.4-4.4-16.9-13.9-16.9
		c-9.4,0-13.9,7.6-13.9,16.9C682.9,812,687.3,819.6,696.8,819.6z"/>
	<path class="st5" d="M760,775.3c19,0,29.4,12.2,29.4,27.4c0,15.1-10.4,27.4-29.4,27.4s-29.4-12.2-29.4-27.4S741,775.3,760,775.3z
		 M760,819.6c9.9,0,13.9-7.6,13.9-16.9c0-9.4-4-16.9-13.9-16.9s-13.9,7.6-13.9,16.9S750.1,819.6,760,819.6z"/>
	<path class="st5" d="M848.1,828.6h-15v-8.5h-0.6c0,0-5,10-17.7,10c-16.1,0-20.5-9.5-20.5-21.4v-31.9h15.5v28.9c0,9,2.8,13,10,13
		c8.3,0,12.7-4.5,12.7-14.9v-26.9H848L848.1,828.6L848.1,828.6z M799.9,767.8h42.7v4h-42.7V767.8z"/>
</g>
</svg>
