<svg width="713" height="593" viewBox="0 0 713 593" fill="none" xmlns="http://www.w3.org/2000/svg">
<rect x="31" width="652" height="593" fill="#B50000"/>
<g clip-path="url(#clip0_1_42)">
<path d="M374.424 381.144L195.002 653.217L194.988 653.219C185.669 638.993 149.755 631.902 135.851 622.734L317.664 343.715L374.424 381.144Z" fill="white"/>
<path d="M333.575 354.208L139.656 648.264C125.753 639.096 130.052 602.304 113.306 599.357L113.303 599.343L292.725 327.271L333.575 354.208Z" fill="white"/>
<path d="M288.543 170.093L360.402 217.478C350.162 210.714 350.644 283.106 343.883 293.36L266.499 319.499L228.587 294.499C240.379 276.599 243.818 255.609 239.823 236.142C235.828 216.676 224.399 198.738 206.51 186.929C224.505 159.623 261.246 152.082 288.543 170.093Z" fill="white"/>
<path d="M436.359 299.098L506.54 345.39L460.197 415.686L390.003 369.396L436.359 299.098Z" fill="white"/>
<path d="M288.35 333.908L266.498 319.499L329.606 223.799C336.367 213.545 350.162 210.714 360.401 217.478L443.107 272.005C453.361 278.766 456.192 292.561 449.43 302.814L447.176 306.232L400.82 376.53L386.324 398.513L370.047 387.78L329.199 360.844L288.35 333.908Z" fill="white"/>
<path d="M563.771 332.111L470.52 473.509L417.058 438.243L440.507 402.701L486.849 332.406L510.296 296.85L563.771 332.111Z" fill="white"/>
<path d="M194.988 653.219L156.987 669.167C153.54 660.894 136.292 670.839 128.261 665.543C120.23 660.248 122.551 640.483 113.616 640.567L113.306 599.356C130.05 602.304 145.817 608.665 159.72 617.833C173.625 627.004 185.668 638.993 194.988 653.219Z" fill="white"/>
</g>
<path d="M140.255 38.66C143.351 38.66 144.956 40.2653 145.071 43.476L147.307 98H135.181L133.203 48.808H131.655L122.109 85.788C121.593 88.54 119.873 89.916 116.949 89.916H108.693C105.769 89.916 103.991 88.54 103.361 85.788L93.8147 48.808H92.3527L90.5467 98H78.3347L80.5707 43.476C80.6853 40.2653 82.3193 38.66 85.4727 38.66H97.7707C100.58 38.66 102.3 40.0647 102.931 42.874L110.585 72.716C110.929 74.092 111.215 75.4967 111.445 76.93C111.674 78.306 111.932 79.7107 112.219 81.144H113.337C113.623 79.7107 113.881 78.306 114.111 76.93C114.397 75.4967 114.684 74.0633 114.971 72.63L122.539 42.874C123.112 40.0647 124.832 38.66 127.699 38.66H140.255ZM180.068 54.398C183.68 54.398 186.69 54.8853 189.098 55.86C191.563 56.7773 193.427 58.3827 194.688 60.676C196.007 62.912 196.666 66.008 196.666 69.964V98H186.518L184.712 88.798L183.938 87.508V69.878C183.881 67.8713 183.365 66.4093 182.39 65.492C181.473 64.5747 179.724 64.116 177.144 64.116C174.908 64.116 172.156 64.202 168.888 64.374C165.62 64.4887 162.266 64.6607 158.826 64.89L157.622 56.462C159.686 56.0607 162.065 55.7167 164.76 55.43C167.455 55.1433 170.149 54.914 172.844 54.742C175.539 54.5127 177.947 54.398 180.068 54.398ZM191.42 71.856L191.334 78.994L172.5 79.08C170.952 79.08 169.834 79.4527 169.146 80.198C168.458 80.9433 168.114 81.9467 168.114 83.208V85.272C168.114 86.7053 168.515 87.8233 169.318 88.626C170.178 89.3713 171.468 89.744 173.188 89.744C174.679 89.744 176.284 89.4287 178.004 88.798C179.781 88.1673 181.53 87.2787 183.25 86.132C184.97 84.9853 186.489 83.638 187.808 82.09V87.594C187.349 88.454 186.604 89.5433 185.572 90.862C184.597 92.1233 183.336 93.3847 181.788 94.646C180.24 95.85 178.405 96.882 176.284 97.742C174.22 98.602 171.869 99.032 169.232 99.032C166.652 99.032 164.33 98.5733 162.266 97.656C160.202 96.7387 158.568 95.3913 157.364 93.614C156.16 91.8367 155.558 89.6293 155.558 86.992V82.606C155.558 79.2233 156.705 76.586 158.998 74.694C161.291 72.802 164.445 71.856 168.458 71.856H191.42ZM226.701 54.398C228.191 54.398 229.854 54.484 231.689 54.656C233.581 54.7707 235.444 55.0287 237.279 55.43C239.171 55.774 240.891 56.29 242.439 56.978L241.063 64.976C238.712 64.9187 236.505 64.8613 234.441 64.804C232.377 64.7467 230.513 64.718 228.851 64.718C226.271 64.718 224.207 65.062 222.659 65.75C221.168 66.438 220.107 67.6707 219.477 69.448C218.846 71.168 218.531 73.576 218.531 76.672C218.531 79.8253 218.846 82.2907 219.477 84.068C220.107 85.8453 221.168 87.078 222.659 87.766C224.207 88.454 226.271 88.798 228.851 88.798C229.768 88.798 230.943 88.7693 232.377 88.712C233.81 88.6547 235.358 88.5973 237.021 88.54C238.683 88.4253 240.317 88.2533 241.923 88.024L243.127 96.108C240.833 97.14 238.225 97.8853 235.301 98.344C232.377 98.8027 229.481 99.032 226.615 99.032C221.34 99.032 217.126 98.3153 213.973 96.882C210.877 95.3913 208.641 93.012 207.265 89.744C205.889 86.476 205.201 82.1187 205.201 76.672C205.201 71.2253 205.889 66.868 207.265 63.6C208.641 60.332 210.905 57.9813 214.059 56.548C217.212 55.1147 221.426 54.398 226.701 54.398ZM273.981 55.516V98H261.253V55.516H273.981ZM288.085 55.516V65.32H247.063V55.516H288.085ZM314.638 54.398C321.862 54.398 327.022 55.6307 330.118 58.096C333.214 60.504 334.791 64.116 334.848 68.932C334.906 72.8307 333.931 75.7547 331.924 77.704C329.918 79.596 326.449 80.542 321.518 80.542H297.696V73.404H317.992C319.884 73.404 321.117 73.0027 321.69 72.2C322.264 71.34 322.522 70.1647 322.464 68.674C322.464 66.6673 321.891 65.2913 320.744 64.546C319.655 63.7433 317.763 63.342 315.068 63.342C312.718 63.342 310.883 63.6573 309.564 64.288C308.303 64.9187 307.414 66.1227 306.898 67.9C306.382 69.6773 306.124 72.2573 306.124 75.64C306.124 79.1947 306.44 81.9467 307.07 83.896C307.701 85.788 308.762 87.1067 310.252 87.852C311.8 88.5973 313.893 88.97 316.53 88.97C318.537 88.97 320.974 88.9127 323.84 88.798C326.764 88.626 329.688 88.368 332.612 88.024L333.73 95.85C332.125 96.6527 330.262 97.2833 328.14 97.742C326.019 98.2007 323.84 98.516 321.604 98.688C319.368 98.9173 317.19 99.032 315.068 99.032C309.736 99.032 305.408 98.258 302.082 96.71C298.814 95.1047 296.435 92.668 294.944 89.4C293.511 86.132 292.794 81.9467 292.794 76.844C292.794 71.2827 293.54 66.868 295.03 63.6C296.521 60.332 298.872 57.9813 302.082 56.548C305.293 55.1147 309.478 54.398 314.638 54.398ZM371.263 54.484C376.653 54.484 380.494 56.4333 382.787 60.332C385.081 64.2307 386.227 69.8207 386.227 77.102C386.227 82.778 385.625 87.2213 384.421 90.432C383.217 93.6427 381.411 95.9073 379.003 97.226C376.653 98.4873 373.7 99.118 370.145 99.118C367.164 99.118 364.269 98.688 361.459 97.828C358.707 96.968 356.299 95.5347 354.235 93.528L355.009 87.852C356.959 88.4253 358.707 88.9413 360.255 89.4C361.803 89.8013 363.581 90.002 365.587 90.002C367.422 90.002 368.884 89.6867 369.973 89.056C371.063 88.4253 371.837 87.1927 372.295 85.358C372.811 83.466 373.069 80.7427 373.069 77.188C373.069 73.6907 372.84 71.0247 372.381 69.19C371.923 67.298 371.177 66.008 370.145 65.32C369.171 64.5747 367.852 64.202 366.189 64.202C364.297 64.202 362.577 64.5747 361.029 65.32C359.481 66.008 357.733 67.0113 355.783 68.33L354.149 62.482C355.296 60.934 356.758 59.558 358.535 58.354C360.37 57.15 362.377 56.204 364.555 55.516C366.734 54.828 368.97 54.484 371.263 54.484ZM353.633 55.516L354.923 63.256L356.041 64.546V92.152L355.611 93.184C355.783 94.904 355.898 96.6813 355.955 98.516C356.07 100.408 356.099 102.271 356.041 104.106V114.34H343.399V55.516H353.633ZM418.954 37.628C421.763 37.628 424.142 37.714 426.092 37.886C428.098 38.0007 429.933 38.2013 431.596 38.488C433.258 38.7747 434.978 39.176 436.756 39.692L435.724 49.324C433.832 49.2093 432.083 49.1233 430.478 49.066C428.93 49.0087 427.238 48.98 425.404 48.98C423.626 48.9227 421.476 48.894 418.954 48.894C416.03 48.894 413.736 49.4673 412.074 50.614C410.468 51.7607 409.322 53.7673 408.634 56.634C407.946 59.4433 407.602 63.342 407.602 68.33C407.602 73.318 407.946 77.2453 408.634 80.112C409.322 82.9213 410.468 84.8993 412.074 86.046C413.736 87.1927 416.03 87.766 418.954 87.766C422.91 87.766 426.235 87.7087 428.93 87.594C431.624 87.4793 434.29 87.2787 436.928 86.992L438.046 96.624C435.294 97.484 432.484 98.086 429.618 98.43C426.751 98.8313 423.196 99.032 418.954 99.032C412.819 99.032 407.888 98.0573 404.162 96.108C400.492 94.1013 397.826 90.862 396.164 86.39C394.558 81.918 393.756 75.898 393.756 68.33C393.756 60.762 394.558 54.742 396.164 50.27C397.826 45.798 400.492 42.5873 404.162 40.638C407.888 38.6313 412.819 37.628 418.954 37.628ZM468.824 55.516V98H456.096V55.516H468.824ZM482.928 55.516V65.32H441.906V55.516H482.928ZM517.816 54.484C523.206 54.484 527.047 56.4333 529.34 60.332C531.634 64.2307 532.78 69.8207 532.78 77.102C532.78 82.778 532.178 87.2213 530.974 90.432C529.77 93.6427 527.964 95.9073 525.556 97.226C523.206 98.4873 520.253 99.118 516.698 99.118C513.717 99.118 510.822 98.688 508.012 97.828C505.26 96.968 502.852 95.5347 500.788 93.528L501.562 87.852C503.512 88.4253 505.26 88.9413 506.808 89.4C508.356 89.8013 510.134 90.002 512.14 90.002C513.975 90.002 515.437 89.6867 516.526 89.056C517.616 88.4253 518.39 87.1927 518.848 85.358C519.364 83.466 519.622 80.7427 519.622 77.188C519.622 73.6907 519.393 71.0247 518.934 69.19C518.476 67.298 517.73 66.008 516.698 65.32C515.724 64.5747 514.405 64.202 512.742 64.202C510.85 64.202 509.13 64.5747 507.582 65.32C506.034 66.008 504.286 67.0113 502.336 68.33L500.702 62.482C501.849 60.934 503.311 59.558 505.088 58.354C506.923 57.15 508.93 56.204 511.108 55.516C513.287 54.828 515.523 54.484 517.816 54.484ZM500.186 55.516L501.476 63.256L502.594 64.546V92.152L502.164 93.184C502.336 94.904 502.451 96.6813 502.508 98.516C502.623 100.408 502.652 102.271 502.594 104.106V114.34H489.952V55.516H500.186ZM561.809 54.398C567.141 54.398 571.412 55.1433 574.623 56.634C577.833 58.0673 580.127 60.418 581.503 63.686C582.936 66.954 583.653 71.34 583.653 76.844C583.653 82.2333 582.936 86.562 581.503 89.83C580.127 93.098 577.833 95.4487 574.623 96.882C571.412 98.3153 567.141 99.032 561.809 99.032C556.477 99.032 552.205 98.3153 548.995 96.882C545.784 95.4487 543.462 93.098 542.029 89.83C540.595 86.562 539.879 82.2333 539.879 76.844C539.879 71.34 540.595 66.954 542.029 63.686C543.462 60.418 545.784 58.0673 548.995 56.634C552.205 55.1433 556.477 54.398 561.809 54.398ZM561.809 63.686C559.63 63.686 557.91 64.0587 556.649 64.804C555.387 65.5493 554.499 66.868 553.983 68.76C553.467 70.652 553.209 73.3467 553.209 76.844C553.209 80.284 553.467 82.95 553.983 84.842C554.499 86.734 555.387 88.0527 556.649 88.798C557.91 89.486 559.63 89.83 561.809 89.83C563.987 89.83 565.707 89.486 566.969 88.798C568.23 88.0527 569.09 86.734 569.549 84.842C570.065 82.95 570.323 80.284 570.323 76.844C570.323 73.3467 570.065 70.652 569.549 68.76C569.09 66.868 568.23 65.5493 566.969 64.804C565.707 64.0587 563.987 63.686 561.809 63.686ZM634.205 55.516V98L622.767 98.086V75.812C622.767 74.6653 622.796 73.5473 622.853 72.458C622.968 71.3687 623.111 70.1933 623.283 68.932H622.939C622.595 69.964 622.108 71.082 621.477 72.286C620.846 73.4327 620.244 74.436 619.671 75.296L603.589 98H592.495V55.516H603.847V78.392C603.847 79.424 603.818 80.456 603.761 81.488C603.704 82.4627 603.589 83.5233 603.417 84.67H603.675C604.134 83.5807 604.621 82.5773 605.137 81.66C605.71 80.6853 606.284 79.768 606.857 78.908L623.197 55.516H634.205ZM619.155 36.768H627.411C627.755 39.1187 627.382 41.2973 626.293 43.304C625.261 45.3107 623.627 46.9447 621.391 48.206C619.212 49.4673 616.546 50.098 613.393 50.098C610.24 50.098 607.545 49.4673 605.309 48.206C603.073 46.9447 601.41 45.3107 600.321 43.304C599.232 41.2973 598.83 39.1187 599.117 36.768H607.459C607.287 39.2907 607.717 41.1253 608.749 42.272C609.838 43.3613 611.386 43.906 613.393 43.906C615.342 43.906 616.833 43.3613 617.865 42.272C618.897 41.1253 619.327 39.2907 619.155 36.768Z" fill="white"/>
<defs>
<clipPath id="clip0_1_42">
<rect width="512" height="512" fill="white" transform="translate(76 80.9617) rotate(-0.33143)"/>
</clipPath>
</defs>
</svg>
