<svg width="713" height="663" viewBox="0 0 713 663" fill="none" xmlns="http://www.w3.org/2000/svg">
<rect x="28" width="652" height="560.254" fill="#B50000"/>
<g clip-path="url(#clip0_1_45)">
<path d="M371.424 360.097L192.002 617.145L191.988 617.148C182.67 603.708 146.755 597.008 132.851 588.346L314.664 324.735L371.424 360.097Z" fill="white"/>
<path d="M330.575 334.649L136.656 612.466C122.753 603.804 127.052 569.044 110.306 566.26L110.303 566.247L289.726 309.199L330.575 334.649Z" fill="white"/>
<path d="M284.901 160.34L356.713 206.044C346.479 199.52 347.703 268.316 341.098 277.997L264.56 302.109L226.672 277.996C238.192 261.097 241.39 241.183 237.224 222.647C233.058 204.111 221.529 186.958 203.652 175.568C221.232 149.789 257.622 142.969 284.901 160.34Z" fill="white"/>
<path d="M432.838 282.112L503.025 326.792L457.718 393.2L387.518 348.523L432.838 282.112Z" fill="white"/>
<path d="M286.108 314.954L264.255 301.047L325.952 210.639C332.563 200.952 346.236 198.39 356.476 204.918L439.188 257.545C449.443 264.071 452.397 277.215 445.787 286.901L443.583 290.13L398.263 356.54L384.09 377.308L367.813 366.949L326.961 340.951L286.108 314.954Z" fill="white"/>
<path d="M559.732 314.137L468.563 447.715L415.097 413.678L438.023 380.102L483.33 313.694L506.252 280.104L559.732 314.137Z" fill="white"/>
<path d="M191.922 617.697L154.341 632.504C150.831 624.605 133.801 633.9 125.77 628.789C117.739 623.677 119.84 604.905 110.965 604.901L110.233 565.711C126.895 568.672 142.622 574.868 156.527 583.717C170.432 592.568 182.518 604.081 191.922 617.697Z" fill="white"/>
</g>
<path d="M140.255 586.66C143.351 586.66 144.956 588.265 145.071 591.476L147.307 646H135.181L133.203 596.808H131.655L122.109 633.788C121.593 636.54 119.873 637.916 116.949 637.916H108.693C105.769 637.916 103.991 636.54 103.361 633.788L93.8147 596.808H92.3527L90.5467 646H78.3347L80.5707 591.476C80.6853 588.265 82.3193 586.66 85.4727 586.66H97.7707C100.58 586.66 102.3 588.065 102.931 590.874L110.585 620.716C110.929 622.092 111.215 623.497 111.445 624.93C111.674 626.306 111.932 627.711 112.219 629.144H113.337C113.623 627.711 113.881 626.306 114.111 624.93C114.397 623.497 114.684 622.063 114.971 620.63L122.539 590.874C123.112 588.065 124.832 586.66 127.699 586.66H140.255ZM180.068 602.398C183.68 602.398 186.69 602.885 189.098 603.86C191.563 604.777 193.427 606.383 194.688 608.676C196.007 610.912 196.666 614.008 196.666 617.964V646H186.518L184.712 636.798L183.938 635.508V617.878C183.881 615.871 183.365 614.409 182.39 613.492C181.473 612.575 179.724 612.116 177.144 612.116C174.908 612.116 172.156 612.202 168.888 612.374C165.62 612.489 162.266 612.661 158.826 612.89L157.622 604.462C159.686 604.061 162.065 603.717 164.76 603.43C167.455 603.143 170.149 602.914 172.844 602.742C175.539 602.513 177.947 602.398 180.068 602.398ZM191.42 619.856L191.334 626.994L172.5 627.08C170.952 627.08 169.834 627.453 169.146 628.198C168.458 628.943 168.114 629.947 168.114 631.208V633.272C168.114 634.705 168.515 635.823 169.318 636.626C170.178 637.371 171.468 637.744 173.188 637.744C174.679 637.744 176.284 637.429 178.004 636.798C179.781 636.167 181.53 635.279 183.25 634.132C184.97 632.985 186.489 631.638 187.808 630.09V635.594C187.349 636.454 186.604 637.543 185.572 638.862C184.597 640.123 183.336 641.385 181.788 642.646C180.24 643.85 178.405 644.882 176.284 645.742C174.22 646.602 171.869 647.032 169.232 647.032C166.652 647.032 164.33 646.573 162.266 645.656C160.202 644.739 158.568 643.391 157.364 641.614C156.16 639.837 155.558 637.629 155.558 634.992V630.606C155.558 627.223 156.705 624.586 158.998 622.694C161.291 620.802 164.445 619.856 168.458 619.856H191.42ZM226.701 602.398C228.191 602.398 229.854 602.484 231.689 602.656C233.581 602.771 235.444 603.029 237.279 603.43C239.171 603.774 240.891 604.29 242.439 604.978L241.063 612.976C238.712 612.919 236.505 612.861 234.441 612.804C232.377 612.747 230.513 612.718 228.851 612.718C226.271 612.718 224.207 613.062 222.659 613.75C221.168 614.438 220.107 615.671 219.477 617.448C218.846 619.168 218.531 621.576 218.531 624.672C218.531 627.825 218.846 630.291 219.477 632.068C220.107 633.845 221.168 635.078 222.659 635.766C224.207 636.454 226.271 636.798 228.851 636.798C229.768 636.798 230.943 636.769 232.377 636.712C233.81 636.655 235.358 636.597 237.021 636.54C238.683 636.425 240.317 636.253 241.923 636.024L243.127 644.108C240.833 645.14 238.225 645.885 235.301 646.344C232.377 646.803 229.481 647.032 226.615 647.032C221.34 647.032 217.126 646.315 213.973 644.882C210.877 643.391 208.641 641.012 207.265 637.744C205.889 634.476 205.201 630.119 205.201 624.672C205.201 619.225 205.889 614.868 207.265 611.6C208.641 608.332 210.905 605.981 214.059 604.548C217.212 603.115 221.426 602.398 226.701 602.398ZM273.981 603.516V646H261.253V603.516H273.981ZM288.085 603.516V613.32H247.063V603.516H288.085ZM314.638 602.398C321.862 602.398 327.022 603.631 330.118 606.096C333.214 608.504 334.791 612.116 334.848 616.932C334.906 620.831 333.931 623.755 331.924 625.704C329.918 627.596 326.449 628.542 321.518 628.542H297.696V621.404H317.992C319.884 621.404 321.117 621.003 321.69 620.2C322.264 619.34 322.522 618.165 322.464 616.674C322.464 614.667 321.891 613.291 320.744 612.546C319.655 611.743 317.763 611.342 315.068 611.342C312.718 611.342 310.883 611.657 309.564 612.288C308.303 612.919 307.414 614.123 306.898 615.9C306.382 617.677 306.124 620.257 306.124 623.64C306.124 627.195 306.44 629.947 307.07 631.896C307.701 633.788 308.762 635.107 310.252 635.852C311.8 636.597 313.893 636.97 316.53 636.97C318.537 636.97 320.974 636.913 323.84 636.798C326.764 636.626 329.688 636.368 332.612 636.024L333.73 643.85C332.125 644.653 330.262 645.283 328.14 645.742C326.019 646.201 323.84 646.516 321.604 646.688C319.368 646.917 317.19 647.032 315.068 647.032C309.736 647.032 305.408 646.258 302.082 644.71C298.814 643.105 296.435 640.668 294.944 637.4C293.511 634.132 292.794 629.947 292.794 624.844C292.794 619.283 293.54 614.868 295.03 611.6C296.521 608.332 298.872 605.981 302.082 604.548C305.293 603.115 309.478 602.398 314.638 602.398ZM371.263 602.484C376.653 602.484 380.494 604.433 382.787 608.332C385.081 612.231 386.227 617.821 386.227 625.102C386.227 630.778 385.625 635.221 384.421 638.432C383.217 641.643 381.411 643.907 379.003 645.226C376.653 646.487 373.7 647.118 370.145 647.118C367.164 647.118 364.269 646.688 361.459 645.828C358.707 644.968 356.299 643.535 354.235 641.528L355.009 635.852C356.959 636.425 358.707 636.941 360.255 637.4C361.803 637.801 363.581 638.002 365.587 638.002C367.422 638.002 368.884 637.687 369.973 637.056C371.063 636.425 371.837 635.193 372.295 633.358C372.811 631.466 373.069 628.743 373.069 625.188C373.069 621.691 372.84 619.025 372.381 617.19C371.923 615.298 371.177 614.008 370.145 613.32C369.171 612.575 367.852 612.202 366.189 612.202C364.297 612.202 362.577 612.575 361.029 613.32C359.481 614.008 357.733 615.011 355.783 616.33L354.149 610.482C355.296 608.934 356.758 607.558 358.535 606.354C360.37 605.15 362.377 604.204 364.555 603.516C366.734 602.828 368.97 602.484 371.263 602.484ZM353.633 603.516L354.923 611.256L356.041 612.546V640.152L355.611 641.184C355.783 642.904 355.898 644.681 355.955 646.516C356.07 648.408 356.099 650.271 356.041 652.106V662.34H343.399V603.516H353.633ZM418.954 585.628C421.763 585.628 424.142 585.714 426.092 585.886C428.098 586.001 429.933 586.201 431.596 586.488C433.258 586.775 434.978 587.176 436.756 587.692L435.724 597.324C433.832 597.209 432.083 597.123 430.478 597.066C428.93 597.009 427.238 596.98 425.404 596.98C423.626 596.923 421.476 596.894 418.954 596.894C416.03 596.894 413.736 597.467 412.074 598.614C410.468 599.761 409.322 601.767 408.634 604.634C407.946 607.443 407.602 611.342 407.602 616.33C407.602 621.318 407.946 625.245 408.634 628.112C409.322 630.921 410.468 632.899 412.074 634.046C413.736 635.193 416.03 635.766 418.954 635.766C422.91 635.766 426.235 635.709 428.93 635.594C431.624 635.479 434.29 635.279 436.928 634.992L438.046 644.624C435.294 645.484 432.484 646.086 429.618 646.43C426.751 646.831 423.196 647.032 418.954 647.032C412.819 647.032 407.888 646.057 404.162 644.108C400.492 642.101 397.826 638.862 396.164 634.39C394.558 629.918 393.756 623.898 393.756 616.33C393.756 608.762 394.558 602.742 396.164 598.27C397.826 593.798 400.492 590.587 404.162 588.638C407.888 586.631 412.819 585.628 418.954 585.628ZM468.824 603.516V646H456.096V603.516H468.824ZM482.928 603.516V613.32H441.906V603.516H482.928ZM517.816 602.484C523.206 602.484 527.047 604.433 529.34 608.332C531.634 612.231 532.78 617.821 532.78 625.102C532.78 630.778 532.178 635.221 530.974 638.432C529.77 641.643 527.964 643.907 525.556 645.226C523.206 646.487 520.253 647.118 516.698 647.118C513.717 647.118 510.822 646.688 508.012 645.828C505.26 644.968 502.852 643.535 500.788 641.528L501.562 635.852C503.512 636.425 505.26 636.941 506.808 637.4C508.356 637.801 510.134 638.002 512.14 638.002C513.975 638.002 515.437 637.687 516.526 637.056C517.616 636.425 518.39 635.193 518.848 633.358C519.364 631.466 519.622 628.743 519.622 625.188C519.622 621.691 519.393 619.025 518.934 617.19C518.476 615.298 517.73 614.008 516.698 613.32C515.724 612.575 514.405 612.202 512.742 612.202C510.85 612.202 509.13 612.575 507.582 613.32C506.034 614.008 504.286 615.011 502.336 616.33L500.702 610.482C501.849 608.934 503.311 607.558 505.088 606.354C506.923 605.15 508.93 604.204 511.108 603.516C513.287 602.828 515.523 602.484 517.816 602.484ZM500.186 603.516L501.476 611.256L502.594 612.546V640.152L502.164 641.184C502.336 642.904 502.451 644.681 502.508 646.516C502.623 648.408 502.652 650.271 502.594 652.106V662.34H489.952V603.516H500.186ZM561.809 602.398C567.141 602.398 571.412 603.143 574.623 604.634C577.833 606.067 580.127 608.418 581.503 611.686C582.936 614.954 583.653 619.34 583.653 624.844C583.653 630.233 582.936 634.562 581.503 637.83C580.127 641.098 577.833 643.449 574.623 644.882C571.412 646.315 567.141 647.032 561.809 647.032C556.477 647.032 552.205 646.315 548.995 644.882C545.784 643.449 543.462 641.098 542.029 637.83C540.595 634.562 539.879 630.233 539.879 624.844C539.879 619.34 540.595 614.954 542.029 611.686C543.462 608.418 545.784 606.067 548.995 604.634C552.205 603.143 556.477 602.398 561.809 602.398ZM561.809 611.686C559.63 611.686 557.91 612.059 556.649 612.804C555.387 613.549 554.499 614.868 553.983 616.76C553.467 618.652 553.209 621.347 553.209 624.844C553.209 628.284 553.467 630.95 553.983 632.842C554.499 634.734 555.387 636.053 556.649 636.798C557.91 637.486 559.63 637.83 561.809 637.83C563.987 637.83 565.707 637.486 566.969 636.798C568.23 636.053 569.09 634.734 569.549 632.842C570.065 630.95 570.323 628.284 570.323 624.844C570.323 621.347 570.065 618.652 569.549 616.76C569.09 614.868 568.23 613.549 566.969 612.804C565.707 612.059 563.987 611.686 561.809 611.686ZM634.205 603.516V646L622.767 646.086V623.812C622.767 622.665 622.796 621.547 622.853 620.458C622.968 619.369 623.111 618.193 623.283 616.932H622.939C622.595 617.964 622.108 619.082 621.477 620.286C620.846 621.433 620.244 622.436 619.671 623.296L603.589 646H592.495V603.516H603.847V626.392C603.847 627.424 603.818 628.456 603.761 629.488C603.704 630.463 603.589 631.523 603.417 632.67H603.675C604.134 631.581 604.621 630.577 605.137 629.66C605.71 628.685 606.284 627.768 606.857 626.908L623.197 603.516H634.205ZM619.155 584.768H627.411C627.755 587.119 627.382 589.297 626.293 591.304C625.261 593.311 623.627 594.945 621.391 596.206C619.212 597.467 616.546 598.098 613.393 598.098C610.24 598.098 607.545 597.467 605.309 596.206C603.073 594.945 601.41 593.311 600.321 591.304C599.232 589.297 598.83 587.119 599.117 584.768H607.459C607.287 587.291 607.717 589.125 608.749 590.272C609.838 591.361 611.386 591.906 613.393 591.906C615.342 591.906 616.833 591.361 617.865 590.272C618.897 589.125 619.327 587.291 619.155 584.768Z" fill="#B50000"/>
<defs>
<clipPath id="clip0_1_45">
<rect width="511.999" height="483.728" fill="white" transform="matrix(0.999985 -0.0054651 0.0061226 0.999981 73 76.4909)"/>
</clipPath>
</defs>
</svg>
