<svg width="1383" height="547" viewBox="0 0 1383 547" fill="none" xmlns="http://www.w3.org/2000/svg">
<path d="M223.588 344.28C228.1 344.28 230.356 346.599 230.356 351.236L235.808 474H219.264L214.564 358.004H210.616L181.664 453.696C180.662 457.456 178.28 459.336 174.52 459.336H159.668C155.783 459.336 153.276 457.456 152.148 453.696L123.196 358.004H119.436L114.924 474H98.3803L103.456 351.236C103.707 346.599 106.026 344.28 110.412 344.28H129.212C132.722 344.28 135.04 346.16 136.168 349.92L160.42 429.068C161.423 431.951 162.238 434.833 162.864 437.716C163.616 440.599 164.431 443.544 165.308 446.552H168.692C169.57 443.544 170.384 440.599 171.136 437.716C171.888 434.833 172.703 431.825 173.58 428.692L197.832 349.92C198.835 346.16 201.216 344.28 204.976 344.28H223.588ZM307.803 380.188C314.571 380.188 320.274 381.128 324.911 383.008C329.549 384.763 333.058 387.771 335.439 392.032C337.821 396.293 339.011 402.121 339.011 409.516V474H326.415L323.971 454.072L323.031 452.004V409.516C322.906 403.876 321.59 399.865 319.083 397.484C316.577 394.977 311.689 393.724 304.419 393.724C299.531 393.724 293.453 393.975 286.183 394.476C279.039 394.977 271.958 395.541 264.939 396.168L263.435 384.324C267.697 383.572 272.397 382.883 277.535 382.256C282.674 381.629 287.875 381.128 293.139 380.752C298.403 380.376 303.291 380.188 307.803 380.188ZM331.491 417.6L331.303 429.632L287.687 429.82C283.301 429.945 280.167 431.136 278.287 433.392C276.533 435.523 275.655 438.531 275.655 442.416V448.244C275.655 453.007 276.783 456.516 279.039 458.772C281.421 460.903 285.055 461.968 289.943 461.968C293.453 461.968 297.401 461.341 301.787 460.088C306.299 458.709 310.811 456.641 315.323 453.884C319.835 451.127 323.971 447.617 327.731 443.356V455.2C326.478 456.955 324.535 459.023 321.903 461.404C319.397 463.66 316.326 465.916 312.691 468.172C309.182 470.303 305.234 472.12 300.847 473.624C296.461 475.003 291.761 475.692 286.747 475.692C281.358 475.692 276.595 474.752 272.459 472.872C268.323 470.867 265.127 467.984 262.871 464.224C260.615 460.339 259.487 455.639 259.487 450.124V440.16C259.487 433.016 261.681 427.501 266.067 423.616C270.579 419.605 276.846 417.6 284.867 417.6H331.491ZM407.21 380.188C409.967 380.188 413.038 380.313 416.422 380.564C419.931 380.815 423.441 381.253 426.95 381.88C430.459 382.507 433.718 383.384 436.726 384.512L434.658 394.852C430.522 394.476 426.135 394.225 421.498 394.1C416.986 393.849 413.101 393.724 409.842 393.724C402.698 393.724 396.933 394.727 392.546 396.732C388.285 398.737 385.214 402.247 383.334 407.26C381.454 412.273 380.514 419.229 380.514 428.128C380.514 437.027 381.454 444.045 383.334 449.184C385.214 454.197 388.285 457.707 392.546 459.712C396.933 461.717 402.698 462.72 409.842 462.72C411.722 462.72 414.166 462.657 417.174 462.532C420.307 462.407 423.566 462.219 426.95 461.968C430.459 461.717 433.781 461.341 436.914 460.84L438.418 471.556C433.906 473.185 428.893 474.376 423.378 475.128C417.989 475.88 412.599 476.256 407.21 476.256C396.682 476.256 388.222 474.689 381.83 471.556C375.438 468.423 370.801 463.347 367.918 456.328C365.161 449.309 363.782 439.909 363.782 428.128C363.782 416.347 365.161 406.947 367.918 399.928C370.801 392.909 375.438 387.896 381.83 384.888C388.222 381.755 396.682 380.188 407.21 380.188ZM499.929 382.444V474H483.949V382.444H499.929ZM533.017 382.444V395.604H450.673V382.444H533.017ZM588.932 380.188C602.719 380.188 612.683 382.695 618.824 387.708C625.091 392.721 628.287 400.179 628.412 410.08C628.412 418.227 626.658 424.619 623.148 429.256C619.764 433.768 614.25 436.024 606.604 436.024H553.024V423.616H602.468C606.479 423.616 609.111 422.237 610.364 419.48C611.743 416.597 612.37 413.464 612.244 410.08C612.244 404.189 610.552 399.991 607.168 397.484C603.784 394.977 597.956 393.724 589.684 393.724C583.042 393.724 577.778 394.727 573.892 396.732C570.132 398.612 567.438 401.996 565.808 406.884C564.304 411.647 563.552 418.352 563.552 427C563.552 436.776 564.492 444.233 566.372 449.372C568.378 454.511 571.511 458.02 575.772 459.9C580.034 461.78 585.674 462.72 592.692 462.72C597.706 462.72 603.095 462.532 608.86 462.156C614.751 461.655 620.015 461.091 624.652 460.464L626.156 471.18C623.399 472.308 619.89 473.248 615.628 474C611.367 474.752 606.98 475.316 602.468 475.692C598.082 476.068 594.134 476.256 590.624 476.256C580.222 476.256 571.762 474.689 565.244 471.556C558.852 468.297 554.215 463.159 551.332 456.14C548.45 448.996 547.008 439.596 547.008 427.94C547.008 415.908 548.45 406.445 551.332 399.552C554.34 392.533 558.915 387.583 565.056 384.7C571.198 381.692 579.156 380.188 588.932 380.188ZM705.312 380.188C716.592 380.188 724.676 384.324 729.564 392.596C734.452 400.743 736.896 412.775 736.896 428.692C736.896 440.473 735.642 449.873 733.136 456.892C730.629 463.785 726.806 468.736 721.668 471.744C716.529 474.752 710.074 476.256 702.304 476.256C696.288 476.256 690.334 475.441 684.444 473.812C678.553 472.183 672.913 469.676 667.524 466.292L668.464 456.704C674.354 458.333 679.493 459.712 683.88 460.84C688.392 461.843 693.154 462.344 698.168 462.344C703.557 462.344 707.818 461.404 710.952 459.524C714.21 457.644 716.592 454.26 718.096 449.372C719.6 444.484 720.352 437.591 720.352 428.692C720.352 420.044 719.662 413.213 718.284 408.2C717.03 403.187 714.9 399.615 711.892 397.484C709.009 395.228 705.124 394.1 700.236 394.1C695.222 394.1 690.272 395.291 685.384 397.672C680.496 400.053 674.793 403.688 668.276 408.576L666.584 397.86C669.968 394.225 673.79 391.092 678.052 388.46C682.313 385.828 686.762 383.823 691.4 382.444C696.162 380.94 700.8 380.188 705.312 380.188ZM666.02 382.444L667.9 401.432L668.84 403.876V462.532L668.088 464.788C668.464 468.297 668.714 471.681 668.84 474.94C668.965 478.199 668.965 481.645 668.84 485.28V511.788H653.048V382.444H666.02ZM810.029 342.024C815.544 342.024 820.244 342.149 824.129 342.4C828.14 342.651 831.775 343.089 835.033 343.716C838.417 344.217 841.864 344.907 845.373 345.784L843.681 358.38C839.921 358.004 836.412 357.691 833.153 357.44C830.02 357.189 826.636 357.001 823.001 356.876C819.367 356.751 815.043 356.688 810.029 356.688C801.632 356.688 794.989 358.317 790.101 361.576C785.213 364.835 781.704 370.287 779.573 377.932C777.568 385.577 776.565 395.98 776.565 409.14C776.565 422.3 777.568 432.703 779.573 440.348C781.704 447.993 785.213 453.445 790.101 456.704C794.989 459.963 801.632 461.592 810.029 461.592C818.051 461.592 824.756 461.467 830.145 461.216C835.66 460.84 841.049 460.276 846.313 459.524L848.005 471.932C842.616 473.436 837.039 474.501 831.273 475.128C825.633 475.88 818.552 476.256 810.029 476.256C797.621 476.256 787.657 474.125 780.137 469.864C772.743 465.477 767.353 458.396 763.969 448.62C760.711 438.844 759.081 425.684 759.081 409.14C759.081 392.596 760.711 379.436 763.969 369.66C767.353 359.884 772.743 352.865 780.137 348.604C787.657 344.217 797.621 342.024 810.029 342.024ZM908.976 382.444V474H892.996V382.444H908.976ZM942.064 382.444V395.604H859.72V382.444H942.064ZM1014.3 380.188C1025.58 380.188 1033.66 384.324 1038.55 392.596C1043.44 400.743 1045.88 412.775 1045.88 428.692C1045.88 440.473 1044.63 449.873 1042.12 456.892C1039.62 463.785 1035.79 468.736 1030.66 471.744C1025.52 474.752 1019.06 476.256 1011.29 476.256C1005.28 476.256 999.323 475.441 993.432 473.812C987.541 472.183 981.901 469.676 976.512 466.292L977.452 456.704C983.343 458.333 988.481 459.712 992.868 460.84C997.38 461.843 1002.14 462.344 1007.16 462.344C1012.55 462.344 1016.81 461.404 1019.94 459.524C1023.2 457.644 1025.58 454.26 1027.08 449.372C1028.59 444.484 1029.34 437.591 1029.34 428.692C1029.34 420.044 1028.65 413.213 1027.27 408.2C1026.02 403.187 1023.89 399.615 1020.88 397.484C1018 395.228 1014.11 394.1 1009.22 394.1C1004.21 394.1 999.26 395.291 994.372 397.672C989.484 400.053 983.781 403.688 977.264 408.576L975.572 397.86C978.956 394.225 982.779 391.092 987.04 388.46C991.301 385.828 995.751 383.823 1000.39 382.444C1005.15 380.94 1009.79 380.188 1014.3 380.188ZM975.008 382.444L976.888 401.432L977.828 403.876V462.532L977.076 464.788C977.452 468.297 977.703 471.681 977.828 474.94C977.953 478.199 977.953 481.645 977.828 485.28V511.788H962.036V382.444H975.008ZM1110.37 380.188C1120.9 380.188 1129.29 381.755 1135.56 384.888C1141.83 388.021 1146.34 393.16 1149.1 400.304C1151.98 407.323 1153.42 416.66 1153.42 428.316C1153.42 439.972 1151.98 449.372 1149.1 456.516C1146.34 463.535 1141.83 468.611 1135.56 471.744C1129.29 474.877 1120.9 476.444 1110.37 476.444C1099.84 476.444 1091.38 474.877 1084.99 471.744C1078.72 468.611 1074.15 463.535 1071.27 456.516C1068.51 449.372 1067.13 439.972 1067.13 428.316C1067.13 416.66 1068.51 407.323 1071.27 400.304C1074.15 393.16 1078.72 388.021 1084.99 384.888C1091.38 381.755 1099.84 380.188 1110.37 380.188ZM1110.37 393.724C1103.73 393.724 1098.46 394.789 1094.58 396.92C1090.69 398.925 1087.93 402.435 1086.31 407.448C1084.68 412.461 1083.86 419.417 1083.86 428.316C1083.86 437.215 1084.68 444.171 1086.31 449.184C1087.93 454.197 1090.69 457.769 1094.58 459.9C1098.46 461.905 1103.73 462.908 1110.37 462.908C1117.01 462.908 1122.21 461.905 1125.97 459.9C1129.86 457.769 1132.62 454.197 1134.25 449.184C1135.87 444.171 1136.69 437.215 1136.69 428.316C1136.69 419.417 1135.87 412.461 1134.25 407.448C1132.62 402.435 1129.86 398.925 1125.97 396.92C1122.21 394.789 1117.01 393.724 1110.37 393.724ZM1259.32 382.444V474H1244.84V413.276C1244.84 411.271 1244.91 409.328 1245.03 407.448C1245.16 405.443 1245.28 403.312 1245.41 401.056H1245.03C1244.28 402.811 1243.28 404.691 1242.02 406.696C1240.9 408.576 1239.77 410.268 1238.64 411.772L1192.02 474H1178.86V382.444H1193.33V443.168C1193.33 445.173 1193.27 447.179 1193.14 449.184C1193.14 451.064 1193.02 453.132 1192.77 455.388H1193.14C1194.15 453.508 1195.21 451.628 1196.34 449.748C1197.47 447.868 1198.6 446.239 1199.72 444.86L1246.35 382.444H1259.32ZM1234.5 341.836H1246.72C1247.1 346.724 1246.16 351.111 1243.9 354.996C1241.77 358.881 1238.51 362.015 1234.13 364.396C1229.87 366.652 1224.73 367.78 1218.71 367.78C1212.7 367.78 1207.49 366.652 1203.11 364.396C1198.72 362.015 1195.4 358.881 1193.14 354.996C1191.01 351.111 1190.07 346.724 1190.32 341.836H1202.54C1202.54 347.225 1203.92 351.424 1206.68 354.432C1209.56 357.315 1213.57 358.756 1218.71 358.756C1223.73 358.756 1227.61 357.315 1230.37 354.432C1233.13 351.424 1234.5 347.225 1234.5 341.836Z" fill="#B50000"/>
<g clip-path="url(#clip0_1_94)">
<path d="M378.997 115.197L388.804 113.323C389.13 113.264 389.468 113.385 389.664 113.64L405.874 134.737C406.031 134.942 406.206 135.136 406.395 135.316L420.18 148.373C422.363 150.44 425.229 151.473 428.096 151.473C430.962 151.473 433.829 150.439 436.011 148.373L462.268 123.502C464.382 121.499 465.547 118.836 465.547 116.004C465.547 113.171 464.383 110.508 462.268 108.505L448.483 95.4483C448.294 95.2691 448.09 95.1041 447.873 94.9541L426.482 80.2085C427.222 77.1095 426.321 73.7254 423.779 71.3167L418.082 65.9207C416.073 64.0192 412.818 64.0186 410.81 65.9214C408.802 67.8235 408.803 70.9076 410.81 72.8091L416.378 78.0823L416.229 78.2232L416.228 78.2239L416.227 78.2245L389.456 103.582C388.566 103.545 387.666 103.602 386.77 103.773L376.964 105.647C373.621 106.284 370.205 105.596 367.46 103.796C367.44 103.783 367.421 103.767 367.401 103.753C367.118 103.565 366.847 103.367 366.586 103.163C366.551 103.136 366.516 103.11 366.483 103.082C366.227 102.877 365.98 102.666 365.749 102.447C365.745 102.444 365.741 102.441 365.737 102.437L347.246 84.9213L343.253 81.1397L343.252 81.1391L340.417 78.4531C338.92 77.0354 338.92 74.7281 340.417 73.3104L355.464 59.0577C360.913 53.8975 360.927 45.5051 355.496 40.3487C344.384 29.7997 327.671 26.5448 313.143 31.8804L311.747 30.5582C329.52 18.0615 354.632 19.5948 370.582 34.7034L396.142 58.9142C398.151 60.8157 401.406 60.8163 403.414 58.9135C405.422 57.0114 405.421 53.9273 403.414 52.0259L377.853 27.8151C357.08 8.13781 323.648 7.22083 301.741 25.7285C300.421 26.8435 299.635 28.4424 299.584 30.1146C299.534 31.7817 300.219 33.4143 301.464 34.5936L307.714 40.5137C309.626 42.3236 312.561 42.8048 315.012 41.7132C326.168 36.7484 339.513 38.9661 348.217 47.2299C349.623 48.5638 349.612 50.8257 348.193 52.1687L333.146 66.4214C327.938 71.355 327.663 79.2116 332.308 84.4621L289.738 122.969L170.653 10.1744C170.446 9.9789 170.231 9.79446 170.007 9.62172C169.971 9.59379 169.932 9.57042 169.895 9.54249C169.704 9.39962 169.511 9.26129 169.309 9.13531C169.3 9.12946 169.291 9.12557 169.282 9.11972C167.897 8.25795 166.278 7.79297 164.582 7.79297C162.883 7.79297 161.26 8.2599 159.873 9.12557C159.867 9.12881 159.861 9.13206 159.855 9.13531C159.653 9.26194 159.459 9.40027 159.268 9.54314C159.231 9.57042 159.193 9.59379 159.156 9.62172C158.933 9.79446 158.717 9.9789 158.511 10.1744L124.719 42.182C121.371 45.3538 121.371 50.5147 124.719 53.6864L142.343 70.379L142.343 70.3796L166.058 92.8422C168.067 94.7437 171.322 94.7443 173.33 92.8415C175.338 90.9394 175.337 87.8553 173.33 85.9538L153.252 66.9358L163.631 57.1049C165.639 55.2028 165.639 52.1187 163.631 50.2172C161.622 48.3145 158.368 48.3151 156.359 50.2166L145.979 60.0481L133.19 47.9339L152.016 30.1016L434.338 297.518L415.512 315.351L402.723 303.237L413.102 293.406C415.11 291.504 415.111 288.42 413.103 286.518C411.095 284.616 407.84 284.615 405.831 286.518L395.451 296.35L340.355 244.162L350.734 234.33C352.742 232.428 352.742 229.344 350.734 227.442C348.727 225.54 345.471 225.54 343.463 227.442L333.083 237.274L277.987 185.086L288.366 175.255C290.374 173.353 290.374 170.269 288.366 168.367C286.358 166.465 283.103 166.464 281.095 168.366L270.715 178.199L215.619 126.011L225.999 116.18C228.007 114.277 228.007 111.193 225.999 109.292C223.99 107.389 220.736 107.39 218.727 109.291L208.347 119.123L188.032 99.8805C186.023 97.979 182.768 97.9784 180.76 99.8812C178.752 101.783 178.753 104.867 180.76 106.769L242.744 165.48L119.048 277.371C116.191 279.955 114.593 283.439 114.548 287.18C114.503 290.921 116.016 294.438 118.808 297.083L139.925 317.086C142.673 319.688 146.326 321.122 150.212 321.122C153.673 321.122 157.042 319.932 159.66 317.82C160.034 317.518 160.392 317.198 160.734 316.859L278.862 199.693L409.44 323.376C411.113 324.961 413.312 325.753 415.51 325.753C417.709 325.753 419.908 324.96 421.582 323.376L455.374 291.369C458.722 288.197 458.722 283.036 455.374 279.864L323.741 155.179L365.43 113.83C369.633 115.571 374.355 116.086 378.997 115.197ZM420.391 88.0579L441.497 102.607L454.997 115.394C455.217 115.603 455.264 115.841 455.264 116.004C455.264 116.167 455.218 116.405 454.997 116.613L428.74 141.485C428.385 141.822 427.807 141.823 427.451 141.485L413.951 128.698L398.592 108.706L420.391 88.0579ZM126.079 290.195C125.362 289.516 124.933 288.642 124.846 287.7C124.834 287.565 124.828 287.429 124.83 287.292C124.843 286.195 125.312 285.174 126.149 284.416L230.777 189.774L233.008 191.888L127.249 291.302L126.079 290.195ZM138.756 302.202L134.521 298.19L240.281 198.777L243.711 202.026L138.756 302.202ZM153.298 310.131C152.688 310.736 151.92 311.136 151.077 311.299C150.796 311.353 150.507 311.381 150.213 311.381C149.074 311.38 148.003 310.96 147.197 310.197L146.028 309.089L250.983 208.914L253.215 211.028L153.298 310.131ZM260.32 203.982L238.216 183.046L250.018 172.37L271.59 192.803L260.32 203.982ZM446.904 285.616L441.61 290.63L159.288 23.214L164.582 18.1992L286.018 133.224L286.02 133.225L294.042 140.824L446.904 285.616ZM316.468 148.29L297.012 129.861L339.535 91.3959L344.395 95.999L357.077 108.012L316.468 148.29Z" fill="#B50000"/>
</g>
<path d="M241.5 166.485H8V539.373H1382.5" stroke="#B50000" stroke-width="15"/>
<defs>
<clipPath id="clip0_1_94">
<rect width="351" height="332.5" fill="white" transform="translate(131)"/>
</clipPath>
</defs>
</svg>
