<svg width="150" height="87" viewBox="0 0 150 87" fill="none" xmlns="http://www.w3.org/2000/svg">
<g clip-path="url(#clip0_97_3)">
<path d="M89.8255 13.4915V28.8057C89.4352 28.3375 89.1665 28.0244 88.9068 27.7019C85.9058 23.9884 82.2839 21.438 77.5924 20.9145C74.4103 20.5596 71.3751 21.2235 68.5617 22.7321C59.9835 27.3336 54.1324 34.5137 51.4812 44.3642C49.6348 51.2218 51.9565 56.7544 57.1257 61.059C57.5186 61.3855 57.914 61.7079 58.5096 62.1978C57.9774 62.2356 57.6884 62.2747 57.3982 62.2734C53.3847 62.2734 49.3699 62.2342 45.359 62.2734C44.5441 62.2734 44.2184 62.0264 44.0397 61.1548C42.4632 53.563 40.8221 45.9983 39.2697 38.4134C39.1619 37.8858 39.4078 37.0641 39.769 36.6687C47.4462 28.2557 55.1534 19.8732 62.8906 11.5214C63.2448 11.1693 63.7141 10.9786 64.1985 10.9897C70.8555 11.6063 77.505 12.277 84.1608 12.9355C86.0325 13.1204 87.9031 13.3025 89.8255 13.4915Z" fill="#6B6B6B"/>
<path d="M36.9835 34.8L24.4185 25.2738L47.9711 0L61.0464 9.4054L36.9835 34.8Z" fill="#6B6B6B"/>
<path d="M25.2905 29.3052C28.9936 32.1868 32.5323 34.9348 36.0635 37.7055C36.3098 37.8963 36.4886 38.1719 36.5705 38.4871C38.0406 46.3277 39.4897 54.1737 40.9882 62.2736L33.634 56.346C32.5323 55.4549 31.4566 54.5104 30.3067 53.6861C29.5735 53.1597 29.2471 52.4731 29.0938 51.5874C27.878 44.6075 26.6552 37.6289 25.4253 30.6517C25.361 30.2911 25.3524 29.9184 25.2905 29.3052Z" fill="#6B6B6B"/>
<path d="M53.2726 0C55.3158 0.214363 57.3616 0.407017 59.4022 0.648514C64.8429 1.27532 70.2829 1.90846 75.7219 2.54793C77.2314 2.7243 78.7422 2.88576 80.2517 3.06484C80.4496 3.0719 80.6428 3.12914 80.8151 3.23172C83.7271 5.43097 86.6301 7.64242 89.8257 10.0737C86.411 9.76571 83.3649 9.493 80.3201 9.21487C76.1005 8.82866 71.88 8.44108 67.6587 8.05216C66.4637 7.94226 65.2469 7.9599 64.0802 7.71163C63.1554 7.5262 62.2742 7.15143 61.4866 6.60861C58.9471 4.77703 56.4798 2.83284 53.9893 0.926642C53.7135 0.714994 53.4608 0.470784 53.1978 0.248281L53.2726 0Z" fill="#6B6B6B"/>
<path d="M54.0698 43.9577C54.98 39.9571 56.6612 36.6743 58.8898 33.6921C62.316 29.0996 66.3832 25.3056 71.9132 23.5099C74.9792 22.514 77.9516 22.5989 80.6249 24.7203C80.7759 24.8218 80.9367 24.9074 81.1047 24.9759C78.9632 25.6724 76.836 26.0233 75.0585 27.0205C72.3956 28.5142 69.9771 30.4636 67.4572 32.2169C66.6641 32.7691 65.919 33.4087 65.083 33.8775C61.4682 35.9115 58.4113 38.609 55.7744 41.823C55.2686 42.4467 54.7719 43.0798 54.0698 43.9577Z" fill="#6B6B6B"/>
<path d="M104.651 43.8322C102.233 44.6659 99.7708 45.2279 97.5769 46.3517C95.3384 47.4979 93.3475 49.1693 91.2825 50.6625C90.0867 51.5264 89.0019 52.5566 87.7933 53.3982C84.5019 55.6907 81.4402 58.2551 78.8137 61.3575L78.4883 61.1952C78.9261 59.8973 79.2464 58.54 79.8207 57.3106C83.278 49.9079 88.5782 44.6606 96.4245 42.5289C98.8187 41.8787 101.216 41.9763 103.497 43.1093C103.894 43.3294 104.279 43.5708 104.651 43.8322Z" fill="#6B6B6B"/>
<path d="M61.0464 47.6209C62.4974 42.7816 64.988 38.3604 68.3244 34.7015C71.0367 31.7239 74.0966 29.2844 77.9036 28.0741C80.5587 27.2301 83.1883 27.1576 85.7009 28.6283C86.21 28.9234 86.6695 29.2991 87.2092 29.6695C85.0454 30.382 82.9121 30.841 80.9927 31.779C78.9053 32.7987 76.8535 34.0601 75.0779 35.5912C73.3024 37.1223 71.4211 38.4412 69.4775 39.7026C66.2318 41.8039 63.3833 44.4139 61.0464 47.6209Z" fill="#6B6B6B"/>
<path d="M67.1509 52.2001C67.8942 49.2098 69.1183 46.376 70.77 43.822C74.0659 38.6746 78.2111 34.6152 83.9535 32.6958C86.2897 31.9138 88.6704 31.7361 90.9952 32.78C91.7634 33.1249 92.4669 33.6288 93.3137 34.126C90.9737 34.9052 88.7616 35.3837 86.7752 36.3716C84.5949 37.4569 82.592 38.966 80.5638 40.3735C78.9336 41.5056 77.4365 42.8596 75.7785 43.9396C72.6284 45.9901 69.8485 48.4415 67.6554 51.604C67.573 51.7243 67.4691 51.8272 67.1509 52.2001Z" fill="#6B6B6B"/>
<path d="M72.3838 56.7787C75.5477 47.8456 80.4842 40.436 89.5249 37.2532C92.5885 36.175 95.6558 36.3778 98.5466 38.8262C97.8223 39.0179 97.2886 39.1755 96.7486 39.3016C92.023 40.41 87.9035 42.6953 84.4143 46.3631C83.3025 47.5318 81.8311 48.2936 80.6138 49.3609C77.8158 51.8148 75.0737 54.344 72.3838 56.7787Z" fill="#6B6B6B"/>
<path d="M85.4653 62.1883C87.6812 57.865 90.3478 54.0802 93.7805 50.957C96.4611 48.5185 99.4267 46.5791 102.961 45.9872C105.754 45.5193 108.461 45.7417 110.756 48.2089C109.589 48.4339 108.564 48.618 107.547 48.8308C103.261 49.7487 99.6558 51.9145 96.8238 55.5137C96.5107 55.9106 96.0054 56.1342 95.5917 56.4398C93.5209 57.9672 91.2973 59.3107 89.4339 61.0877C88.1955 62.2756 87.0321 62.4025 85.4653 62.1883Z" fill="#6B6B6B"/>
<path d="M94.186 61.9095C95.5981 60.3152 96.9266 58.6364 98.4392 57.1445C101.435 54.1798 104.791 51.7795 108.873 50.735C111.709 50.0109 114.394 50.2427 116.861 52.4888C115.471 52.7615 114.22 52.9402 113.008 53.2661C108.075 54.5916 104.053 57.4691 100.676 61.3776C100.14 61.9981 99.6242 62.3049 98.8151 62.2709C97.3364 62.208 95.8552 62.2531 94.3778 62.2531L94.186 61.9095Z" fill="#6B6B6B"/>
<path d="M111.628 57.2543C114.611 55.1145 117.784 54.0747 121.215 55.8515C123.468 57.02 124.506 59.1693 124.709 62.2736C121.118 57.5187 116.659 56.5091 111.628 57.2543Z" fill="#6B6B6B"/>
<path d="M3.89573 79L6.61373 66.148H10.1597L10.7357 75.76H10.8077L15.6317 66.148H19.3577L16.6397 79H14.1737L15.4517 72.916C15.5357 72.508 15.6317 72.076 15.7397 71.62C15.8597 71.152 15.9737 70.696 16.0817 70.252C16.2017 69.796 16.3097 69.394 16.4057 69.046H16.3337L11.3297 79H8.86373L8.32373 69.046H8.25173C8.22773 69.298 8.17973 69.646 8.10773 70.09C8.03573 70.522 7.95173 70.996 7.85573 71.512C7.77173 72.028 7.67573 72.532 7.56773 73.024L6.30773 79H3.89573ZM22.8296 79.18C22.3616 79.18 21.9116 79.066 21.4796 78.838C21.0596 78.598 20.7176 78.22 20.4536 77.704C20.1896 77.176 20.0576 76.48 20.0576 75.616C20.0576 74.98 20.1236 74.344 20.2556 73.708C20.3996 73.072 20.5976 72.472 20.8496 71.908C21.1136 71.344 21.4316 70.846 21.8036 70.414C22.1756 69.97 22.5956 69.622 23.0636 69.37C23.5436 69.118 24.0596 68.992 24.6116 68.992C25.0316 68.992 25.3916 69.052 25.6916 69.172C26.0036 69.292 26.2676 69.46 26.4836 69.676C26.7116 69.892 26.8976 70.144 27.0416 70.432H27.1136L27.6176 69.172H29.6516L27.5636 79H25.5836L25.7096 77.722H25.6376C25.4096 78.01 25.1576 78.262 24.8816 78.478C24.6056 78.694 24.2996 78.868 23.9636 79C23.6276 79.12 23.2496 79.18 22.8296 79.18ZM23.8736 77.038C24.2336 77.038 24.5696 76.894 24.8816 76.606C25.1936 76.318 25.4576 75.946 25.6736 75.49C25.9016 75.034 26.0636 74.554 26.1596 74.05C26.2076 73.81 26.2376 73.576 26.2496 73.348C26.2736 73.108 26.2856 72.85 26.2856 72.574C26.2856 72.154 26.1776 71.812 25.9616 71.548C25.7456 71.272 25.4456 71.134 25.0616 71.134C24.7976 71.134 24.5516 71.218 24.3236 71.386C24.0956 71.554 23.8796 71.782 23.6756 72.07C23.4836 72.358 23.3156 72.688 23.1716 73.06C23.0396 73.432 22.9316 73.828 22.8476 74.248C22.7756 74.656 22.7396 75.07 22.7396 75.49C22.7396 76.006 22.8356 76.396 23.0276 76.66C23.2316 76.912 23.5136 77.038 23.8736 77.038ZM34.3991 79.18C33.7271 79.18 33.1091 79.06 32.5451 78.82C31.9931 78.568 31.5551 78.178 31.2311 77.65C30.9071 77.122 30.7451 76.426 30.7451 75.562C30.7451 74.854 30.8171 74.176 30.9611 73.528C31.1171 72.88 31.3331 72.28 31.6091 71.728C31.8971 71.176 32.2511 70.696 32.6711 70.288C33.0911 69.88 33.5771 69.562 34.1291 69.334C34.6811 69.106 35.2871 68.992 35.9471 68.992C36.5351 68.992 37.0571 69.046 37.5131 69.154C37.9811 69.262 38.4191 69.418 38.8271 69.622L38.0171 71.638C37.7051 71.506 37.3931 71.392 37.0811 71.296C36.7811 71.188 36.4391 71.134 36.0551 71.134C35.7191 71.134 35.4131 71.212 35.1371 71.368C34.8611 71.524 34.6151 71.74 34.3991 72.016C34.1951 72.292 34.0151 72.61 33.8591 72.97C33.7151 73.33 33.6071 73.714 33.5351 74.122C33.4631 74.518 33.4271 74.926 33.4271 75.346C33.4271 75.718 33.4871 76.03 33.6071 76.282C33.7271 76.534 33.8951 76.726 34.1111 76.858C34.3391 76.978 34.6151 77.038 34.9391 77.038C35.3831 77.038 35.7911 76.972 36.1631 76.84C36.5471 76.696 36.9431 76.522 37.3511 76.318V78.478C36.9431 78.694 36.4991 78.868 36.0191 79C35.5511 79.12 35.0111 79.18 34.3991 79.18ZM38.9783 79L41.0663 69.172H43.0823L42.9023 70.99H42.9743C43.2263 70.594 43.5023 70.246 43.8023 69.946C44.1143 69.646 44.4563 69.412 44.8283 69.244C45.2003 69.076 45.6143 68.992 46.0703 68.992C46.7423 68.992 47.2643 69.172 47.6363 69.532C48.0083 69.88 48.2543 70.366 48.3743 70.99H48.4463C48.6983 70.594 48.9743 70.246 49.2743 69.946C49.5863 69.646 49.9343 69.412 50.3183 69.244C50.7023 69.076 51.1223 68.992 51.5783 68.992C52.3943 68.992 53.0063 69.25 53.4143 69.766C53.8223 70.27 54.0263 70.954 54.0263 71.818C54.0263 72.034 54.0083 72.28 53.9723 72.556C53.9363 72.82 53.8883 73.102 53.8283 73.402L52.6583 79H50.0123L51.2183 73.258C51.2663 73.054 51.3023 72.868 51.3263 72.7C51.3503 72.52 51.3623 72.358 51.3623 72.214C51.3623 71.842 51.2903 71.572 51.1463 71.404C51.0023 71.224 50.7863 71.134 50.4983 71.134C50.1983 71.134 49.9163 71.23 49.6523 71.422C49.4003 71.614 49.1663 71.884 48.9503 72.232C48.7463 72.58 48.5603 72.982 48.3923 73.438C48.2363 73.894 48.1043 74.386 47.9963 74.914L47.1503 79H44.5043L45.7103 73.258C45.7583 73.054 45.7943 72.868 45.8183 72.7C45.8423 72.52 45.8543 72.358 45.8543 72.214C45.8543 71.842 45.7823 71.572 45.6383 71.404C45.4943 71.224 45.2783 71.134 44.9903 71.134C44.6903 71.134 44.4083 71.236 44.1443 71.44C43.8923 71.632 43.6583 71.902 43.4423 72.25C43.2383 72.598 43.0523 73 42.8843 73.456C42.7283 73.912 42.5963 74.404 42.4883 74.932L41.6243 79H38.9783ZM59.6292 79.18C58.8612 79.18 58.1832 79.042 57.5952 78.766C57.0192 78.49 56.5632 78.07 56.2272 77.506C55.9032 76.942 55.7412 76.234 55.7412 75.382C55.7412 74.554 55.8552 73.762 56.0832 73.006C56.3232 72.238 56.6712 71.554 57.1272 70.954C57.5952 70.354 58.1712 69.88 58.8552 69.532C59.5392 69.172 60.3312 68.992 61.2312 68.992C62.3352 68.992 63.1572 69.244 63.6972 69.748C64.2492 70.252 64.5252 70.894 64.5252 71.674C64.5252 72.19 64.4052 72.658 64.1652 73.078C63.9372 73.498 63.5892 73.858 63.1212 74.158C62.6652 74.458 62.0832 74.692 61.3752 74.86C60.6672 75.016 59.8332 75.094 58.8732 75.094H58.4232C58.4112 75.166 58.4052 75.232 58.4052 75.292C58.4052 75.34 58.4052 75.394 58.4052 75.454C58.4052 75.982 58.5552 76.402 58.8552 76.714C59.1672 77.026 59.5992 77.182 60.1512 77.182C60.6672 77.182 61.1352 77.122 61.5552 77.002C61.9752 76.882 62.4732 76.69 63.0492 76.426V78.424C62.5332 78.676 62.0112 78.868 61.4832 79C60.9552 79.12 60.3372 79.18 59.6292 79.18ZM59.1072 73.312C59.7912 73.312 60.3432 73.24 60.7632 73.096C61.1832 72.952 61.4892 72.76 61.6812 72.52C61.8852 72.268 61.9872 72.004 61.9872 71.728C61.9872 71.452 61.9032 71.248 61.7352 71.116C61.5792 70.972 61.3572 70.9 61.0692 70.9C60.7452 70.9 60.4212 71.002 60.0972 71.206C59.7732 71.41 59.4852 71.692 59.2332 72.052C58.9932 72.412 58.8192 72.832 58.7112 73.312H59.1072ZM64.3748 83.32L67.3808 69.172H69.3968L69.2528 70.666H69.3248C69.5288 70.378 69.7628 70.108 70.0268 69.856C70.3028 69.604 70.6148 69.4 70.9628 69.244C71.3108 69.076 71.6948 68.992 72.1148 68.992C72.5948 68.992 73.0448 69.112 73.4648 69.352C73.8848 69.58 74.2268 69.958 74.4908 70.486C74.7548 71.002 74.8867 71.698 74.8867 72.574C74.8867 73.21 74.8148 73.846 74.6708 74.482C74.5388 75.118 74.3408 75.718 74.0768 76.282C73.8248 76.846 73.5128 77.344 73.1408 77.776C72.7688 78.208 72.3428 78.55 71.8628 78.802C71.3948 79.054 70.8848 79.18 70.3328 79.18C69.9368 79.18 69.6008 79.12 69.3248 79C69.0488 78.868 68.8148 78.694 68.6228 78.478C68.4308 78.25 68.2568 78.004 68.1008 77.74H68.0288C67.9928 78.22 67.9448 78.658 67.8848 79.054C67.8248 79.45 67.7468 79.876 67.6508 80.332L67.0208 83.32H64.3748ZM69.8828 77.038C70.1468 77.038 70.3928 76.954 70.6208 76.786C70.8488 76.618 71.0588 76.39 71.2508 76.102C71.4548 75.814 71.6228 75.484 71.7548 75.112C71.8988 74.74 72.0068 74.344 72.0788 73.924C72.1628 73.504 72.2048 73.09 72.2048 72.682C72.2048 72.166 72.1088 71.782 71.9168 71.53C71.7248 71.266 71.4368 71.134 71.0528 71.134C70.7648 71.134 70.5068 71.206 70.2788 71.35C70.0508 71.494 69.8468 71.692 69.6668 71.944C69.4988 72.184 69.3488 72.46 69.2168 72.772C69.0848 73.084 68.9768 73.402 68.8928 73.726C68.8208 74.05 68.7608 74.368 68.7128 74.68C68.6768 74.98 68.6588 75.25 68.6588 75.49C68.6588 75.958 68.7668 76.336 68.9828 76.624C69.2108 76.9 69.5108 77.038 69.8828 77.038ZM81.4698 79.18C80.4258 79.18 79.5558 78.976 78.8598 78.568C78.1638 78.148 77.6358 77.56 77.2758 76.804C76.9278 76.048 76.7538 75.16 76.7538 74.14C76.7538 73.384 76.8378 72.622 77.0058 71.854C77.1858 71.074 77.4498 70.336 77.7978 69.64C78.1578 68.932 78.6078 68.302 79.1478 67.75C79.6878 67.186 80.3298 66.748 81.0738 66.436C81.8298 66.112 82.6818 65.95 83.6298 65.95C84.4458 65.95 85.1358 66.028 85.6998 66.184C86.2758 66.328 86.8458 66.556 87.4098 66.868L86.3658 69.064C85.9578 68.824 85.5318 68.626 85.0878 68.47C84.6558 68.302 84.1698 68.218 83.6298 68.218C83.0538 68.218 82.5378 68.338 82.0818 68.578C81.6378 68.806 81.2478 69.124 80.9118 69.532C80.5878 69.928 80.3178 70.378 80.1018 70.882C79.8978 71.374 79.7418 71.89 79.6338 72.43C79.5378 72.97 79.4898 73.492 79.4898 73.996C79.4898 74.968 79.6878 75.694 80.0838 76.174C80.4918 76.654 81.1338 76.894 82.0098 76.894C82.5018 76.894 82.9938 76.828 83.4858 76.696C83.9898 76.564 84.4878 76.402 84.9798 76.21V78.496C84.6198 78.64 84.1398 78.79 83.5398 78.946C82.9398 79.102 82.2498 79.18 81.4698 79.18ZM87.0193 79L89.1073 69.172H91.1233L90.9433 70.99H91.0153C91.2673 70.594 91.5433 70.246 91.8433 69.946C92.1553 69.646 92.4973 69.412 92.8693 69.244C93.2413 69.076 93.6553 68.992 94.1113 68.992C94.7833 68.992 95.3053 69.172 95.6773 69.532C96.0493 69.88 96.2953 70.366 96.4153 70.99H96.4873C96.7393 70.594 97.0153 70.246 97.3153 69.946C97.6273 69.646 97.9753 69.412 98.3593 69.244C98.7433 69.076 99.1633 68.992 99.6193 68.992C100.435 68.992 101.047 69.25 101.455 69.766C101.863 70.27 102.067 70.954 102.067 71.818C102.067 72.034 102.049 72.28 102.013 72.556C101.977 72.82 101.929 73.102 101.869 73.402L100.699 79H98.0533L99.2593 73.258C99.3073 73.054 99.3433 72.868 99.3673 72.7C99.3913 72.52 99.4033 72.358 99.4033 72.214C99.4033 71.842 99.3313 71.572 99.1873 71.404C99.0433 71.224 98.8273 71.134 98.5393 71.134C98.2393 71.134 97.9573 71.23 97.6933 71.422C97.4413 71.614 97.2073 71.884 96.9913 72.232C96.7873 72.58 96.6013 72.982 96.4333 73.438C96.2773 73.894 96.1453 74.386 96.0373 74.914L95.1913 79H92.5453L93.7513 73.258C93.7993 73.054 93.8353 72.868 93.8593 72.7C93.8833 72.52 93.8953 72.358 93.8953 72.214C93.8953 71.842 93.8233 71.572 93.6793 71.404C93.5353 71.224 93.3193 71.134 93.0313 71.134C92.7313 71.134 92.4493 71.236 92.1853 71.44C91.9333 71.632 91.6993 71.902 91.4833 72.25C91.2793 72.598 91.0933 73 90.9253 73.456C90.7693 73.912 90.6373 74.404 90.5293 74.932L89.6653 79H87.0193ZM102.396 83.32L105.402 69.172H107.418L107.274 70.666H107.346C107.55 70.378 107.784 70.108 108.048 69.856C108.324 69.604 108.636 69.4 108.984 69.244C109.332 69.076 109.716 68.992 110.136 68.992C110.616 68.992 111.066 69.112 111.486 69.352C111.906 69.58 112.248 69.958 112.512 70.486C112.776 71.002 112.908 71.698 112.908 72.574C112.908 73.21 112.836 73.846 112.692 74.482C112.56 75.118 112.362 75.718 112.098 76.282C111.846 76.846 111.534 77.344 111.162 77.776C110.79 78.208 110.364 78.55 109.884 78.802C109.416 79.054 108.906 79.18 108.354 79.18C107.958 79.18 107.622 79.12 107.346 79C107.07 78.868 106.836 78.694 106.644 78.478C106.452 78.25 106.278 78.004 106.122 77.74H106.05C106.014 78.22 105.966 78.658 105.906 79.054C105.846 79.45 105.768 79.876 105.672 80.332L105.042 83.32H102.396ZM107.904 77.038C108.168 77.038 108.414 76.954 108.642 76.786C108.87 76.618 109.08 76.39 109.272 76.102C109.476 75.814 109.644 75.484 109.776 75.112C109.92 74.74 110.028 74.344 110.1 73.924C110.184 73.504 110.226 73.09 110.226 72.682C110.226 72.166 110.13 71.782 109.938 71.53C109.746 71.266 109.458 71.134 109.074 71.134C108.786 71.134 108.528 71.206 108.3 71.35C108.072 71.494 107.868 71.692 107.688 71.944C107.52 72.184 107.37 72.46 107.238 72.772C107.106 73.084 106.998 73.402 106.914 73.726C106.842 74.05 106.782 74.368 106.734 74.68C106.698 74.98 106.68 75.25 106.68 75.49C106.68 75.958 106.788 76.336 107.004 76.624C107.232 76.9 107.532 77.038 107.904 77.038ZM118.249 79.18C117.517 79.18 116.863 79.03 116.287 78.73C115.723 78.418 115.279 77.98 114.955 77.416C114.643 76.852 114.487 76.18 114.487 75.4C114.487 74.704 114.553 74.038 114.685 73.402C114.829 72.766 115.039 72.184 115.315 71.656C115.591 71.116 115.939 70.648 116.359 70.252C116.779 69.856 117.265 69.55 117.817 69.334C118.381 69.106 119.011 68.992 119.707 68.992C120.475 68.992 121.135 69.148 121.687 69.46C122.239 69.76 122.665 70.204 122.965 70.792C123.277 71.368 123.433 72.064 123.433 72.88C123.433 73.54 123.367 74.182 123.235 74.806C123.103 75.43 122.899 76.006 122.623 76.534C122.359 77.062 122.023 77.524 121.615 77.92C121.207 78.316 120.721 78.628 120.157 78.856C119.593 79.072 118.957 79.18 118.249 79.18ZM118.465 77.02C118.753 77.02 119.017 76.948 119.257 76.804C119.497 76.648 119.713 76.438 119.905 76.174C120.097 75.91 120.253 75.604 120.373 75.256C120.505 74.908 120.601 74.53 120.661 74.122C120.733 73.714 120.769 73.3 120.769 72.88C120.769 72.544 120.727 72.25 120.643 71.998C120.571 71.734 120.439 71.53 120.247 71.386C120.067 71.23 119.821 71.152 119.509 71.152C119.185 71.152 118.897 71.242 118.645 71.422C118.393 71.602 118.171 71.842 117.979 72.142C117.799 72.43 117.643 72.76 117.511 73.132C117.391 73.504 117.301 73.888 117.241 74.284C117.181 74.668 117.151 75.04 117.151 75.4C117.151 75.928 117.259 76.33 117.475 76.606C117.691 76.882 118.021 77.02 118.465 77.02ZM130.867 68.092C129.895 68.092 129.145 67.96 128.617 67.696C128.089 67.432 127.723 67.09 127.519 66.67C127.327 66.25 127.231 65.812 127.231 65.356C127.231 65.284 127.231 65.212 127.231 65.14C127.243 65.068 127.255 65.002 127.267 64.942H129.607C129.595 65.038 129.589 65.116 129.589 65.176C129.589 65.236 129.589 65.296 129.589 65.356C129.589 65.788 129.721 66.1 129.985 66.292C130.249 66.484 130.615 66.58 131.083 66.58C131.623 66.58 132.055 66.46 132.379 66.22C132.715 65.98 132.955 65.554 133.099 64.942H135.493C135.337 65.578 135.085 66.136 134.737 66.616C134.401 67.084 133.921 67.45 133.297 67.714C132.685 67.966 131.875 68.092 130.867 68.092ZM127.699 79.18C127.135 79.18 126.667 79.066 126.295 78.838C125.923 78.598 125.647 78.268 125.467 77.848C125.287 77.428 125.197 76.93 125.197 76.354C125.197 76.138 125.215 75.862 125.251 75.526C125.287 75.178 125.341 74.83 125.413 74.482L126.529 69.172H129.175L127.969 74.914C127.921 75.106 127.885 75.292 127.861 75.472C127.837 75.652 127.825 75.814 127.825 75.958C127.825 76.33 127.903 76.606 128.059 76.786C128.227 76.954 128.467 77.038 128.779 77.038C129.187 77.038 129.547 76.87 129.859 76.534C130.183 76.186 130.465 75.724 130.705 75.148C130.945 74.572 131.137 73.936 131.281 73.24L132.145 69.172H134.791L132.703 79H130.687L130.867 77.182H130.777C130.525 77.566 130.249 77.914 129.949 78.226C129.649 78.526 129.313 78.76 128.941 78.928C128.569 79.096 128.155 79.18 127.699 79.18Z" fill="#C91414"/>
</g>
<defs>
<clipPath id="clip0_97_3">
<rect width="150" height="87" fill="white"/>
</clipPath>
</defs>
</svg>
