<svg width="719" height="602" viewBox="0 0 719 602" fill="none" xmlns="http://www.w3.org/2000/svg">
<path d="M97 194.5L2 163.5L208 6.5V109.5L97 194.5Z" fill="#B50000" stroke="#B50000"/>
<path d="M417 155L325 188.5L208.5 108V7.5L417 155Z" fill="#980000" stroke="#980000"/>
<path d="M371 1H324.5V75L371 104V1Z" fill="#B50000" stroke="#B50000"/>
<path d="M259.5 145.5H163.5V466.5H259.5V145.5Z" fill="#B50000" stroke="#B50000"/>
<path d="M224.06 166.21C225.536 166.21 226.301 166.975 226.356 168.506L227.422 194.5H221.641L220.698 171.048H219.96L215.409 188.678C215.163 189.99 214.343 190.646 212.949 190.646H209.013C207.619 190.646 206.771 189.99 206.471 188.678L201.92 171.048H201.223L200.362 194.5H194.54L195.606 168.506C195.66 166.975 196.439 166.21 197.943 166.21H203.806C205.145 166.21 205.965 166.88 206.266 168.219L209.915 182.446C210.079 183.102 210.215 183.772 210.325 184.455C210.434 185.111 210.557 185.781 210.694 186.464H211.227C211.363 185.781 211.486 185.111 211.596 184.455C211.732 183.772 211.869 183.088 212.006 182.405L215.614 168.219C215.887 166.88 216.707 166.21 218.074 166.21H224.06ZM212.451 222.713C214.173 222.713 215.608 222.945 216.756 223.41C217.931 223.847 218.819 224.613 219.421 225.706C220.049 226.772 220.364 228.248 220.364 230.134V243.5H215.526L214.665 239.113L214.296 238.498V230.093C214.268 229.136 214.022 228.439 213.558 228.002C213.12 227.565 212.287 227.346 211.057 227.346C209.991 227.346 208.679 227.387 207.121 227.469C205.563 227.524 203.964 227.606 202.324 227.715L201.75 223.697C202.734 223.506 203.868 223.342 205.153 223.205C206.437 223.068 207.722 222.959 209.007 222.877C210.291 222.768 211.439 222.713 212.451 222.713ZM217.863 231.036L217.822 234.439L208.843 234.48C208.105 234.48 207.572 234.658 207.244 235.013C206.916 235.368 206.752 235.847 206.752 236.448V237.432C206.752 238.115 206.943 238.648 207.326 239.031C207.736 239.386 208.351 239.564 209.171 239.564C209.881 239.564 210.647 239.414 211.467 239.113C212.314 238.812 213.148 238.389 213.968 237.842C214.788 237.295 215.512 236.653 216.141 235.915V238.539C215.922 238.949 215.567 239.468 215.075 240.097C214.61 240.698 214.009 241.3 213.271 241.901C212.533 242.475 211.658 242.967 210.647 243.377C209.663 243.787 208.542 243.992 207.285 243.992C206.055 243.992 204.948 243.773 203.964 243.336C202.98 242.899 202.201 242.256 201.627 241.409C201.053 240.562 200.766 239.509 200.766 238.252V236.161C200.766 234.548 201.312 233.291 202.406 232.389C203.499 231.487 205.002 231.036 206.916 231.036H217.863ZM212.481 271.713C213.191 271.713 213.984 271.754 214.859 271.836C215.761 271.891 216.649 272.014 217.524 272.205C218.426 272.369 219.246 272.615 219.984 272.943L219.328 276.756C218.207 276.729 217.155 276.701 216.171 276.674C215.187 276.647 214.298 276.633 213.506 276.633C212.276 276.633 211.292 276.797 210.554 277.125C209.843 277.453 209.337 278.041 209.037 278.888C208.736 279.708 208.586 280.856 208.586 282.332C208.586 283.835 208.736 285.011 209.037 285.858C209.337 286.705 209.843 287.293 210.554 287.621C211.292 287.949 212.276 288.113 213.506 288.113C213.943 288.113 214.503 288.099 215.187 288.072C215.87 288.045 216.608 288.017 217.401 287.99C218.193 287.935 218.972 287.853 219.738 287.744L220.312 291.598C219.218 292.09 217.975 292.445 216.581 292.664C215.187 292.883 213.806 292.992 212.44 292.992C209.925 292.992 207.916 292.65 206.413 291.967C204.937 291.256 203.871 290.122 203.215 288.564C202.559 287.006 202.231 284.929 202.231 282.332C202.231 279.735 202.559 277.658 203.215 276.1C203.871 274.542 204.95 273.421 206.454 272.738C207.957 272.055 209.966 271.713 212.481 271.713ZM214.041 321.246V341.5H207.973V321.246H214.041ZM220.765 321.246V325.92H201.208V321.246H220.765ZM211.463 369.713C214.907 369.713 217.367 370.301 218.843 371.476C220.319 372.624 221.07 374.346 221.098 376.642C221.125 378.501 220.66 379.895 219.704 380.824C218.747 381.726 217.093 382.177 214.743 382.177H203.386V378.774H213.062C213.964 378.774 214.551 378.583 214.825 378.2C215.098 377.79 215.221 377.23 215.194 376.519C215.194 375.562 214.92 374.906 214.374 374.551C213.854 374.168 212.952 373.977 211.668 373.977C210.547 373.977 209.672 374.127 209.044 374.428C208.442 374.729 208.019 375.303 207.773 376.15C207.527 376.997 207.404 378.227 207.404 379.84C207.404 381.535 207.554 382.847 207.855 383.776C208.155 384.678 208.661 385.307 209.372 385.662C210.11 386.017 211.107 386.195 212.365 386.195C213.321 386.195 214.483 386.168 215.85 386.113C217.244 386.031 218.638 385.908 220.032 385.744L220.565 389.475C219.799 389.858 218.911 390.158 217.9 390.377C216.888 390.596 215.85 390.746 214.784 390.828C213.718 390.937 212.679 390.992 211.668 390.992C209.126 390.992 207.062 390.623 205.477 389.885C203.919 389.12 202.784 387.958 202.074 386.4C201.39 384.842 201.049 382.847 201.049 380.414C201.049 377.763 201.404 375.658 202.115 374.1C202.825 372.542 203.946 371.421 205.477 370.738C207.007 370.055 209.003 369.713 211.463 369.713ZM214.515 418.754C217.084 418.754 218.916 419.683 220.009 421.542C221.102 423.401 221.649 426.066 221.649 429.537C221.649 432.243 221.362 434.361 220.788 435.892C220.214 437.423 219.353 438.502 218.205 439.131C217.084 439.732 215.677 440.033 213.982 440.033C212.561 440.033 211.18 439.828 209.841 439.418C208.529 439.008 207.381 438.325 206.397 437.368L206.766 434.662C207.695 434.935 208.529 435.181 209.267 435.4C210.005 435.591 210.852 435.687 211.809 435.687C212.684 435.687 213.381 435.537 213.9 435.236C214.419 434.935 214.788 434.348 215.007 433.473C215.253 432.571 215.376 431.273 215.376 429.578C215.376 427.911 215.267 426.64 215.048 425.765C214.829 424.863 214.474 424.248 213.982 423.92C213.517 423.565 212.889 423.387 212.096 423.387C211.194 423.387 210.374 423.565 209.636 423.92C208.898 424.248 208.064 424.726 207.135 425.355L206.356 422.567C206.903 421.829 207.6 421.173 208.447 420.599C209.322 420.025 210.278 419.574 211.317 419.246C212.356 418.918 213.422 418.754 214.515 418.754ZM206.11 419.246L206.725 422.936L207.258 423.551V436.712L207.053 437.204C207.135 438.024 207.19 438.871 207.217 439.746C207.272 440.648 207.285 441.536 207.258 442.411V447.29H201.231V419.246H206.11Z" fill="white"/>
<path d="M301.182 365.992C304.579 365.992 307.456 366.096 309.814 366.304C312.24 366.443 314.459 366.685 316.47 367.032C318.48 367.379 320.56 367.864 322.71 368.488L321.462 380.136C319.174 379.997 317.059 379.893 315.118 379.824C313.246 379.755 311.2 379.72 308.982 379.72C306.832 379.651 304.232 379.616 301.182 379.616C297.646 379.616 294.872 380.309 292.862 381.696C290.92 383.083 289.534 385.509 288.702 388.976C287.87 392.373 287.454 397.088 287.454 403.12C287.454 409.152 287.87 413.901 288.702 417.368C289.534 420.765 290.92 423.157 292.862 424.544C294.872 425.931 297.646 426.624 301.182 426.624C305.966 426.624 309.987 426.555 313.246 426.416C316.504 426.277 319.728 426.035 322.918 425.688L324.27 437.336C320.942 438.376 317.544 439.104 314.078 439.52C310.611 440.005 306.312 440.248 301.182 440.248C293.763 440.248 287.8 439.069 283.294 436.712C278.856 434.285 275.632 430.368 273.622 424.96C271.68 419.552 270.71 412.272 270.71 403.12C270.71 393.968 271.68 386.688 273.622 381.28C275.632 375.872 278.856 371.989 283.294 369.632C287.8 367.205 293.763 365.992 301.182 365.992ZM361.49 387.624V439H346.098V387.624H361.49ZM378.546 387.624V399.48H328.938V387.624H378.546ZM420.736 386.376C427.254 386.376 431.899 388.733 434.672 393.448C437.446 398.163 438.832 404.923 438.832 413.728C438.832 420.592 438.104 425.965 436.648 429.848C435.192 433.731 433.008 436.469 430.096 438.064C427.254 439.589 423.683 440.352 419.384 440.352C415.779 440.352 412.278 439.832 408.88 438.792C405.552 437.752 402.64 436.019 400.144 433.592L401.08 426.728C403.438 427.421 405.552 428.045 407.424 428.6C409.296 429.085 411.446 429.328 413.872 429.328C416.091 429.328 417.859 428.947 419.176 428.184C420.494 427.421 421.43 425.931 421.984 423.712C422.608 421.424 422.92 418.131 422.92 413.832C422.92 409.603 422.643 406.379 422.088 404.16C421.534 401.872 420.632 400.312 419.384 399.48C418.206 398.579 416.611 398.128 414.6 398.128C412.312 398.128 410.232 398.579 408.36 399.48C406.488 400.312 404.374 401.525 402.016 403.12L400.04 396.048C401.427 394.176 403.195 392.512 405.344 391.056C407.563 389.6 409.99 388.456 412.624 387.624C415.259 386.792 417.963 386.376 420.736 386.376ZM399.416 387.624L400.976 396.984L402.328 398.544V431.928L401.808 433.176C402.016 435.256 402.155 437.405 402.224 439.624C402.363 441.912 402.398 444.165 402.328 446.384V458.76H387.04V387.624H399.416ZM473.936 386.272C480.384 386.272 485.55 387.173 489.432 388.976C493.315 390.709 496.088 393.552 497.752 397.504C499.486 401.456 500.352 406.76 500.352 413.416C500.352 419.933 499.486 425.168 497.752 429.12C496.088 433.072 493.315 435.915 489.432 437.648C485.55 439.381 480.384 440.248 473.936 440.248C467.488 440.248 462.323 439.381 458.44 437.648C454.558 435.915 451.75 433.072 450.016 429.12C448.283 425.168 447.416 419.933 447.416 413.416C447.416 406.76 448.283 401.456 450.016 397.504C451.75 393.552 454.558 390.709 458.44 388.976C462.323 387.173 467.488 386.272 473.936 386.272ZM473.936 397.504C471.302 397.504 469.222 397.955 467.696 398.856C466.171 399.757 465.096 401.352 464.472 403.64C463.848 405.928 463.536 409.187 463.536 413.416C463.536 417.576 463.848 420.8 464.472 423.088C465.096 425.376 466.171 426.971 467.696 427.872C469.222 428.704 471.302 429.12 473.936 429.12C476.571 429.12 478.651 428.704 480.176 427.872C481.702 426.971 482.742 425.376 483.296 423.088C483.92 420.8 484.232 417.576 484.232 413.416C484.232 409.187 483.92 405.928 483.296 403.64C482.742 401.352 481.702 399.757 480.176 398.856C478.651 397.955 476.571 397.504 473.936 397.504ZM561.486 387.624V439L547.654 439.104V412.168C547.654 410.781 547.688 409.429 547.758 408.112C547.896 406.795 548.07 405.373 548.278 403.848H547.862C547.446 405.096 546.856 406.448 546.094 407.904C545.331 409.291 544.603 410.504 543.91 411.544L524.462 439H511.046V387.624H524.774V415.288C524.774 416.536 524.739 417.784 524.67 419.032C524.6 420.211 524.462 421.493 524.254 422.88H524.566C525.12 421.563 525.71 420.349 526.334 419.24C527.027 418.061 527.72 416.952 528.414 415.912L548.174 387.624H561.486ZM543.286 364.952H553.27C553.686 367.795 553.235 370.429 551.918 372.856C550.67 375.283 548.694 377.259 545.99 378.784C543.355 380.309 540.131 381.072 536.318 381.072C532.504 381.072 529.246 380.309 526.542 378.784C523.838 377.259 521.827 375.283 520.51 372.856C519.192 370.429 518.707 367.795 519.054 364.952H529.142C528.934 368.003 529.454 370.221 530.702 371.608C532.019 372.925 533.891 373.584 536.318 373.584C538.675 373.584 540.478 372.925 541.726 371.608C542.974 370.221 543.494 368.003 543.286 364.952Z" fill="#A6A6A6"/>
</svg>
