<svg width="1204" height="265" viewBox="0 0 1204 265" fill="none" xmlns="http://www.w3.org/2000/svg">
<path d="M1204 126.208V183.805C1204 228.602 1167.71 265 1122.83 265H81.173C74.8751 265 68.7472 264.28 62.8591 262.92C52.5325 260.53 42.9557 256.171 34.5485 250.251H34.5385C28.3306 245.871 22.7624 240.661 18.014 234.762C17.984 234.732 17.964 234.712 17.954 234.682C6.71777 220.752 0 203.053 0 183.805V126.208C0 81.4102 36.3879 45.0122 81.173 45.0122H1122.93C1136.52 45.0122 1149.42 48.412 1160.71 54.3117C1162.81 55.4116 1164.81 56.5116 1166.71 57.8115C1189.1 72.2107 1204 97.5093 1204 126.208Z" fill="#1F1E1E"/>
<path d="M404.766 95.6093L320.394 265H281.107L373.276 79.9102L401.767 94.1094L404.766 95.6093Z" fill="white"/>
<path d="M517.028 45.0122L407.565 265H316.595L401.767 94.1095L426.158 45.0122H517.028Z" fill="#D22027"/>
<path d="M118.601 175.215C121.9 184.414 121.5 195.014 116.801 204.413L86.3813 265H81.1731C74.8752 265 68.7472 264.28 62.8591 262.92C52.5326 260.53 42.9558 256.171 34.5486 250.251H34.5385C28.3306 245.871 22.7625 240.661 18.014 234.762L50.0234 170.915C53.7722 163.506 59.7302 157.826 66.7079 154.356C68.1074 153.646 69.5469 153.036 71.0164 152.516C73.4656 151.656 75.295 150.336 76.7345 148.796C76.7945 148.736 76.8545 148.676 76.9045 148.606C78.264 147.107 79.2637 145.417 80.1234 143.727C80.1534 143.657 80.1934 143.577 80.2334 143.507C81.1931 141.587 81.9728 139.677 82.8725 138.097C82.9725 137.917 83.0724 137.737 83.1824 137.567C83.1924 137.547 83.2024 137.537 83.2124 137.517L83.2524 137.537L100.127 146.067H100.137L103.406 147.717L123.599 157.916L118.901 167.315C118.641 167.825 118.421 168.345 118.261 168.875C118.011 169.645 117.891 170.365 117.861 171.075C117.811 171.915 117.881 172.765 118.081 173.605C118.101 173.685 118.121 173.765 118.141 173.855C118.261 174.315 118.411 174.765 118.601 175.215Z" fill="#F94A46"/>
<path d="M104.006 173.115C104.006 173.125 104.006 173.125 104.006 173.135C101.156 191.634 91.4197 204.303 62.8592 262.92C52.5326 260.53 42.9558 256.17 34.5486 250.251H34.5386C34.6885 249.971 34.8285 249.691 34.9784 249.411C35.9381 247.561 36.8678 245.751 37.7675 243.981C63.519 193.694 69.0671 177.405 80.1034 164.916C80.8632 164.046 81.6529 163.196 82.4827 162.346L82.4926 162.336C82.5026 162.326 82.5026 162.326 82.5126 162.316L82.6826 162.406L104.006 173.115Z" fill="#FC6060"/>
<path d="M82.5126 162.316C82.5026 162.326 82.5026 162.326 82.4926 162.336L82.4826 162.346C81.6529 163.196 80.8631 164.046 80.1034 164.916C69.0671 177.485 63.5289 193.764 37.7675 243.981C36.8678 245.751 35.9381 247.561 34.9784 249.411C34.8384 249.691 34.6885 249.971 34.5485 250.251H34.5385C28.3306 245.871 22.7624 240.661 18.014 234.762C17.984 234.732 17.964 234.712 17.954 234.682L49.9234 170.915C53.6222 163.416 59.6202 157.816 66.6179 154.316L66.7078 154.356L66.7178 154.366L66.7678 154.396L82.5126 162.316Z" fill="#E83A3A"/>
<path d="M125.198 121.318L180.78 10.724C182.579 7.12421 181.18 2.72445 177.581 0.924547C173.982 -0.875353 169.584 0.524566 167.784 4.12437L112.203 114.818L125.198 121.318Z" fill="#E6E6E6"/>
<path d="M180.38 3.42465C179.78 2.42471 178.681 1.52476 177.581 0.924791C173.982 -0.875109 169.584 0.524811 167.784 4.12461L112.203 114.818L118.701 118.118L174.282 7.42443C175.482 5.02456 177.781 3.52465 180.38 3.42465Z" fill="#CCCCCC"/>
<path d="M177.481 0.824737C173.882 -0.975263 169.484 0.424734 167.684 4.02473L164.485 10.5247L177.581 17.0247L180.78 10.5247C182.579 7.12473 181.08 2.72474 177.481 0.824737Z" fill="#CCCCCC"/>
<path d="M167.684 4.12456L164.485 10.6246L170.983 13.9246L174.182 7.42456C175.382 5.02456 177.781 3.52456 180.28 3.42456C180.18 3.32456 180.18 3.22456 180.08 3.02456L179.98 2.92456C179.88 2.82456 179.68 2.52456 179.58 2.42456C179.48 2.32456 179.48 2.32456 179.48 2.32456C179.38 2.22456 179.38 2.22456 179.28 2.12456C179.18 2.02456 179.081 1.92456 178.981 1.82456C178.881 1.72456 178.881 1.72457 178.781 1.72457C178.681 1.62457 178.481 1.52456 178.381 1.42456C178.281 1.42456 178.281 1.32456 178.281 1.32456C178.081 1.22456 177.881 1.12456 177.681 1.02456C173.882 -0.975445 169.584 0.524561 167.684 4.12456Z" fill="#BAB9B9"/>
<path d="M118.9 167.315L121.7 161.816C130.897 143.417 128.197 148.916 137.694 129.918C139.094 127.218 137.994 123.818 135.195 122.418L104.705 107.119C102.006 105.719 98.6072 106.819 97.2077 109.619C92.8092 118.318 87.411 129.118 83.2124 137.617C79.8135 144.417 77.9141 150.216 71.0164 152.616C69.5169 153.116 68.1174 153.716 66.7178 154.416L120.1 181.215C119 175.315 116.401 172.315 118.9 167.315Z" fill="#B3B3B3"/>
<path d="M100.107 146.117C104.305 137.717 109.804 126.818 114.102 118.118C115.502 115.418 118.801 114.218 121.6 115.618L104.605 107.119C101.906 105.719 98.5073 106.819 97.1077 109.619C92.7092 118.318 87.311 129.118 83.1124 137.617C79.7135 144.417 77.8141 150.216 70.9164 152.616C69.4169 153.116 68.0174 153.716 66.6179 154.416L82.6125 162.416C82.6125 162.416 86.5112 161.716 87.9108 161.116C94.4086 158.416 96.7079 152.816 100.107 146.117Z" fill="#A2A2A3"/>
<path d="M196.275 262.41L277.648 100.219C263.552 99.419 250.457 92.8194 241.36 82.02L159.987 244.211C174.082 245.011 187.278 251.611 196.275 262.41Z" fill="#B3B3B3"/>
<path d="M257.654 94.8192C251.456 91.7194 245.958 87.3196 241.36 81.9199L159.987 244.111C166.985 244.511 173.782 246.411 179.98 249.511L257.654 94.8192Z" fill="#A2A2A3"/>
<path d="M204.072 201.713C201.273 200.314 200.174 196.914 201.573 194.114L226.065 145.217C227.464 142.417 230.863 141.317 233.662 142.717C236.462 144.117 237.561 147.516 236.162 150.316L211.67 199.214C210.27 201.913 206.871 203.113 204.072 201.713Z" fill="#E6E6E6"/>
<path d="M184.879 232.912C182.379 228.512 186.478 223.312 191.277 224.712C194.675 225.612 196.375 229.512 194.875 232.712C193.676 235.112 190.877 236.312 188.378 235.612C187.578 235.412 185.578 234.112 184.879 232.912Z" fill="#E6E6E6"/>
<path d="M276.648 4.32439C277.748 2.2245 275.948 -0.275362 273.649 0.0246218C218.667 6.62426 212.369 83.32 264.152 99.9191C292.743 109.019 323.632 91.5196 330.03 61.6212C332.729 48.8219 330.33 35.9226 324.332 25.4232C323.133 23.3233 320.134 23.4233 319.034 25.6232C309.637 44.4222 307.438 48.7219 297.641 68.2208C296.541 70.4207 294.342 71.9207 291.843 72.0207L272.549 73.1206C270.05 73.2206 267.651 72.1207 266.351 70.0208L255.755 53.9217C254.355 51.8218 254.255 49.2219 255.355 47.022C262.353 32.7228 269.45 18.6236 276.648 4.32439Z" fill="#CCCCCC"/>
<path d="M127.698 159.916L79.1137 135.517C74.1154 133.017 72.1161 126.918 74.6152 121.918C77.1144 116.918 83.2124 114.918 88.2107 117.418L136.795 141.817C141.793 144.317 143.792 150.416 141.293 155.416C138.794 160.416 132.696 162.416 127.698 159.916Z" fill="#CCCCCC"/>
<path d="M95.5083 132.317C98.0075 127.318 104.105 125.318 109.104 127.818L88.2107 117.318C83.2124 114.818 77.1144 116.818 74.6152 121.818C72.1161 126.818 74.1154 132.917 79.1137 135.417L100.007 145.917C95.0084 143.517 92.9091 137.317 95.5083 132.317Z" fill="#BAB9B9"/>
<path d="M243.059 117.118C240.56 112.718 244.659 107.518 249.457 108.918C252.856 109.818 254.555 113.718 253.056 116.918C251.856 119.318 249.057 120.518 246.558 119.818C245.758 119.518 243.659 118.318 243.059 117.118Z" fill="#E6E6E6"/>
<path d="M200.793 265H115.382C124.009 252.071 138.404 243.211 155.089 242.211C156.088 242.161 157.088 242.141 158.088 242.141C159.037 242.141 159.997 242.161 160.947 242.211C160.967 242.201 160.977 242.201 160.997 242.211H161.087C162.216 242.271 163.336 242.381 164.455 242.521C170.283 243.241 175.862 244.981 180.96 247.551C181 247.571 181.04 247.591 181.08 247.611C187.348 250.701 192.826 255.07 197.314 260.34C197.334 260.36 197.354 260.39 197.374 260.41C198.594 261.87 199.744 263.4 200.793 265Z" fill="#CCCCCC"/>
<path d="M164.485 242.511C164.475 242.511 164.465 242.521 164.455 242.521C163.066 242.921 161.576 243.311 160.287 243.711C160.267 243.721 160.247 243.721 160.227 243.731C160.207 243.741 160.187 243.741 160.167 243.751C148.951 247.601 139.534 255.211 133.366 265H115.252C123.869 252.021 138.264 243.111 154.989 242.111C156.988 242.011 158.987 242.011 160.987 242.111H161.037C162.216 242.211 163.306 242.311 164.485 242.511Z" fill="#BAB9B9"/>
<path d="M247.158 52.9218C245.858 31.223 258.354 11.9241 276.948 3.32453C277.148 1.52463 275.648 -0.0752804 273.749 0.0247141C273.049 0.124709 272.45 0.224706 271.75 0.324701C271.65 0.324701 271.45 0.324707 271.35 0.424701C254.855 3.12455 241.26 13.524 233.962 27.6232C227.165 41.5224 226.765 58.3215 233.063 72.6207C233.163 72.9207 233.363 73.2207 233.463 73.6206C233.463 73.7206 233.562 73.8206 233.562 73.8206C238.661 84.0201 246.958 92.3196 257.155 97.2193C259.354 98.2193 261.653 99.1192 264.052 99.9192C273.349 102.919 282.846 103.019 291.743 100.819C267.751 97.7193 248.557 77.9204 247.158 52.9218Z" fill="#BAB9B9"/>
<path d="M518.023 118.595H530.319C530.019 113.995 528.22 110.495 523.622 110.495C518.023 110.495 517.724 116.095 517.724 116.095H509.826C509.826 116.095 510.626 104.596 523.622 104.596C533.118 104.596 538.217 111.495 538.217 119.995C538.217 128.494 533.118 135.394 523.622 135.394C510.726 135.394 509.826 123.895 509.826 123.895H517.724C517.724 123.895 518.023 129.494 523.622 129.494C528.32 129.494 530.219 125.695 530.319 120.795H517.923V118.595H518.023Z" fill="white"/>
<path d="M540.816 105.395H548.713V117.195L559.11 105.395H568.407L557.41 116.795L569.006 134.594H559.41L552.012 122.394L548.813 125.694V134.594H540.816V105.395Z" fill="white"/>
<path d="M582.402 104.495C595.298 104.495 596.197 115.995 596.197 115.995H588.3C588.3 115.995 588 110.395 582.402 110.395C577.404 110.395 575.704 114.695 575.704 119.895C575.704 125.094 577.404 129.394 582.402 129.394C588 129.394 588.3 123.794 588.3 123.794H596.197C596.197 123.794 595.398 135.294 582.402 135.294C572.905 135.294 567.807 128.394 567.807 119.895C567.807 111.395 572.805 104.495 582.402 104.495Z" fill="white"/>
<path d="M598.697 105.395H606.594V117.195L616.99 105.395H626.287L615.291 116.795L626.887 134.594H617.29L609.893 122.394L606.694 125.694V134.594H598.797L598.697 105.395Z" fill="white"/>
<path d="M637.484 105.395H646.381L656.877 134.594H648.48L641.782 113.895L635.084 134.594H627.087L637.484 105.395Z" fill="white"/>
<path d="M666.674 116.895H670.573C671.572 109.895 676.271 104.495 684.668 104.495C694.265 104.495 698.963 111.395 698.963 119.895C698.963 128.394 694.265 135.294 684.668 135.294C676.271 135.294 671.572 129.994 670.573 122.894H666.674V134.394H658.777V105.195H666.674V116.895ZM684.668 129.494C689.666 129.494 691.166 125.194 691.166 119.995C691.166 114.795 689.666 110.495 684.668 110.495C679.67 110.495 678.17 114.795 678.17 119.995C678.17 125.194 679.67 129.494 684.668 129.494Z" fill="white"/>
<path d="M699.863 105.395H726.854V111.595L717.357 120.594C717.357 120.594 728.054 120.894 728.054 132.694C728.054 139.193 723.555 145.593 714.058 145.593C703.062 145.593 699.163 139.093 699.163 132.394H707.061C707.061 136.294 709.06 139.693 714.058 139.693C717.957 139.693 720.256 136.894 720.256 132.994C720.256 128.794 718.257 125.694 710.459 125.694H708.26V121.194L718.057 111.695H700.063V105.395H699.863Z" fill="white"/>
<path d="M757.144 134.594H749.546V129.794H749.247C749.247 129.794 746.747 135.394 740.25 135.394C732.152 135.394 729.853 130.094 729.853 123.294V105.295H737.75V121.595C737.75 126.694 739.15 128.894 742.849 128.894C747.047 128.894 749.346 126.394 749.346 120.495V105.295H757.244V134.594H757.144Z" fill="white"/>
<path d="M759.943 105.395H773.938C781.536 105.395 785.435 107.895 785.435 113.295C785.435 118.095 780.936 119.195 780.936 119.195V119.494C780.936 119.494 786.234 120.594 786.234 126.194C786.234 131.794 782.535 134.594 774.738 134.594H759.843V105.395H759.943ZM773.439 117.195C776.238 117.195 777.637 116.095 777.637 114.095C777.637 112.095 776.537 110.995 773.938 110.995H767.74V117.195H773.439ZM767.74 122.194V128.894H774.438C776.937 128.894 778.337 127.794 778.337 125.494C778.337 123.194 776.637 122.094 773.838 122.094L767.74 122.194Z" fill="white"/>
<path d="M807.327 123.094H796.331V134.594H788.434V105.395H796.331V116.895H807.327V105.395H815.225V134.594H807.327V123.094Z" fill="white"/>
<path d="M818.024 105.395H825.921V116.095H829.32C837.417 116.095 841.916 119.794 841.916 125.394C841.916 130.994 837.417 134.694 829.32 134.694H818.124V105.395H818.024ZM825.921 121.694V128.994H828.12C832.319 128.994 834.018 127.894 834.018 125.294C834.018 122.794 832.319 121.594 828.12 121.594H825.921V121.694ZM852.012 134.594H844.115V105.395H852.012V134.594Z" fill="white"/>
<path d="M869.107 104.495C878.704 104.495 883.102 111.395 883.102 119.895C883.102 120.594 883.002 121.594 883.002 121.594H862.309C862.609 126.094 864.508 129.494 869.307 129.494C874.105 129.494 874.905 124.994 874.905 124.994H882.802C882.802 124.994 881.103 135.394 869.007 135.394C859.21 135.394 854.412 128.494 854.412 119.995C854.412 111.495 859.51 104.495 869.107 104.495ZM862.709 116.595H875.105C874.605 112.995 873.005 110.395 869.107 110.395C865.308 110.395 863.309 112.995 862.709 116.595Z" fill="white"/>
<path d="M554.811 169.792C564.408 169.792 569.706 176.691 569.706 185.191C569.706 193.69 564.408 200.59 554.811 200.59C545.214 200.59 539.916 193.69 539.916 185.191C539.916 176.791 545.214 169.792 554.811 169.792ZM554.811 194.79C559.809 194.79 561.809 190.491 561.809 185.291C561.809 179.991 559.809 175.791 554.811 175.791C549.813 175.791 547.813 180.091 547.813 185.291C547.813 190.591 549.813 194.79 554.811 194.79Z" fill="white"/>
<path d="M589.4 183.591C589.4 178.491 588.4 176.291 585.301 176.291C581.902 176.291 580.103 178.791 580.103 184.691V199.89H572.205V170.692H579.803V175.492H580.103C580.103 175.492 582.102 169.892 588 169.892C592.699 169.892 595.198 172.092 596.397 175.592L596.497 175.492H596.797C596.797 175.492 599.296 169.892 605.194 169.892C612.492 169.892 614.491 175.192 614.491 181.991V199.99H606.594V183.691C606.594 178.591 605.594 176.391 602.495 176.391C599.096 176.391 597.297 178.891 597.297 184.791V199.99H589.4V183.591Z" fill="white"/>
<path d="M657.877 199.89H650.279V195.09H649.98C649.98 195.09 647.48 200.69 640.983 200.69C632.885 200.69 630.586 195.39 630.586 188.591V170.592H638.483V186.991C638.483 192.091 639.883 194.29 643.582 194.29C647.78 194.29 650.079 191.791 650.079 185.891V170.692H657.977V199.89H657.877Z" fill="white"/>
<path d="M660.676 170.692H687.667V176.892L678.17 185.891C678.17 185.891 688.867 186.191 688.867 197.99C688.867 204.49 684.368 210.89 674.871 210.89C663.875 210.89 659.976 204.39 659.976 197.69H667.874C667.874 201.59 669.873 204.99 674.871 204.99C678.77 204.99 681.069 202.19 681.069 198.29C681.069 194.091 679.07 190.991 671.272 190.991H669.073V186.491L678.87 176.992H660.876V170.692H660.676Z" fill="white"/>
<path d="M690.766 170.692H704.761C712.359 170.692 716.257 173.192 716.257 178.591C716.257 183.391 711.759 184.491 711.759 184.491V184.791C711.759 184.791 717.057 185.891 717.057 191.491C717.057 197.09 713.358 199.89 705.561 199.89H690.766V170.692ZM704.162 182.491C706.961 182.491 708.36 181.391 708.36 179.391C708.36 177.392 707.261 176.292 704.661 176.292H698.463V182.491H704.162ZM698.563 187.491V194.191H705.261C707.76 194.191 709.16 193.091 709.16 190.791C709.16 188.591 707.46 187.391 704.661 187.391L698.563 187.491Z" fill="white"/>
<path d="M733.352 169.792C742.949 169.792 747.347 176.691 747.347 185.191C747.347 185.891 747.247 186.891 747.247 186.891H726.754C727.054 191.391 728.953 194.79 733.752 194.79C738.55 194.79 739.35 190.291 739.35 190.291H747.247C747.247 190.291 745.548 200.69 733.452 200.69C723.655 200.69 718.857 193.79 718.857 185.291C718.757 176.791 723.755 169.792 733.352 169.792ZM726.954 181.891H739.35C738.85 178.291 737.251 175.691 733.352 175.691C729.553 175.691 727.654 178.291 726.954 181.891Z" fill="white"/>
<path d="M764.242 169.792C777.137 169.792 778.037 181.291 778.037 181.291H770.14C770.14 181.291 769.84 175.691 764.242 175.691C759.243 175.691 757.544 179.991 757.544 185.191C757.544 190.491 759.243 194.69 764.242 194.69C769.84 194.69 770.14 189.091 770.14 189.091H778.037C778.037 189.091 777.237 200.59 764.242 200.59C754.745 200.59 749.646 193.69 749.646 185.191C749.646 176.791 754.745 169.792 764.242 169.792Z" fill="white"/>
<path d="M797.73 183.591C797.73 178.491 796.731 176.291 793.632 176.291C790.233 176.291 788.434 178.791 788.434 184.691V199.89H780.536V170.692H788.134V175.492H788.434C788.434 175.492 790.433 169.892 796.331 169.892C801.029 169.892 803.529 172.092 804.728 175.592L804.828 175.492H805.128C805.128 175.492 807.627 169.892 813.525 169.892C820.823 169.892 822.822 175.192 822.822 181.991V199.99H814.925V183.691C814.925 178.591 813.925 176.391 810.826 176.391C807.427 176.391 805.628 178.891 805.628 184.791V199.99H797.73V183.591Z" fill="white"/>
<path d="M844.315 188.391H833.319V199.89H825.421V170.692H833.319V182.191H844.315V170.692H852.212V199.89H844.315V188.391Z" fill="white"/>
<path d="M855.011 170.692H862.909V181.391H866.308C874.405 181.391 878.903 185.091 878.903 190.691C878.903 196.29 874.405 199.99 866.308 199.99H855.111V170.692H855.011ZM862.809 186.991V194.291H865.008C869.207 194.291 870.906 193.191 870.906 190.591C870.906 188.091 869.207 186.891 865.008 186.891H862.809V186.991ZM888.9 199.89H881.003V170.692H888.9V199.89Z" fill="white"/>
<path d="M906.394 179.091L911.693 170.692H920.99L910.893 184.691L921.889 199.89H912.592L906.394 190.391L900.196 199.89H890.899L901.896 184.691L891.799 170.692H901.096L906.394 179.091Z" fill="white"/>
<path d="M936.984 182.191C936.984 163.392 945.881 160.592 954.079 160.592H964.775V167.092H953.379C947.081 167.092 944.682 169.892 943.682 176.091H943.982C943.982 176.091 946.481 171.592 953.279 171.592C961.976 171.592 967.074 178.091 967.074 186.191C967.074 194.09 961.976 200.79 952.179 200.79C944.282 200.69 936.984 196.19 936.984 182.191ZM952.079 194.79C957.078 194.79 959.077 190.791 959.077 186.091C959.077 181.391 957.078 177.391 952.079 177.391C947.081 177.391 945.081 181.391 945.081 186.091C945.081 190.891 947.081 194.79 952.079 194.79Z" fill="white"/>
<path d="M969.473 170.692H977.071V174.592H977.371C977.371 174.592 979.87 169.792 986.368 169.792C994.765 169.792 998.964 177.091 998.964 185.191C998.964 193.29 994.765 200.59 986.368 200.59C980.17 200.59 977.671 196.69 977.671 196.69H977.371V209.99H969.473V170.692ZM984.168 194.79C988.967 194.79 991.166 190.491 991.166 185.291C991.166 179.991 988.967 175.791 984.168 175.791C979.37 175.791 977.171 180.091 977.171 185.291C977.071 190.591 979.37 194.79 984.168 194.79Z" fill="white"/>
<path d="M1015.86 169.792C1025.45 169.792 1029.85 176.691 1029.85 185.191C1029.85 185.891 1029.75 186.891 1029.75 186.891H1009.06C1009.36 191.391 1011.26 194.79 1016.06 194.79C1020.86 194.79 1021.66 190.291 1021.66 190.291H1029.55C1029.55 190.291 1027.85 200.69 1015.76 200.69C1005.96 200.69 1001.16 193.79 1001.16 185.291C1001.26 176.791 1006.26 169.792 1015.86 169.792ZM1009.36 181.891H1021.76C1021.26 178.291 1019.66 175.691 1015.76 175.691C1011.96 175.691 1010.06 178.291 1009.36 181.891Z" fill="white"/>
<path d="M1051.25 188.391H1040.25V199.89H1032.35V170.692H1040.25V182.191H1051.25V170.692H1059.14V199.89H1051.25V188.391Z" fill="white"/>
<path d="M1091.13 196.49C1091.13 204.89 1086.63 210.79 1076.54 210.79C1063.04 210.79 1062.74 200.69 1062.74 200.69H1070.64C1070.64 200.69 1070.94 204.89 1076.54 204.89C1081.54 204.89 1083.24 202.09 1083.24 196.99V195.59H1082.94C1082.94 195.59 1080.44 199.49 1074.24 199.49C1065.84 199.49 1061.64 192.191 1061.64 184.591C1061.64 176.991 1065.84 169.692 1074.24 169.692C1080.74 169.692 1083.24 174.492 1083.24 174.492H1083.54V170.592H1091.13V196.49ZM1076.54 175.692C1071.74 175.692 1069.54 179.991 1069.54 184.691C1069.54 189.391 1071.74 193.691 1076.54 193.691C1081.34 193.691 1083.54 189.391 1083.54 184.691C1083.54 179.991 1081.24 175.692 1076.54 175.692Z" fill="white"/>
<path d="M1108.53 169.792C1118.12 169.792 1123.42 176.691 1123.42 185.191C1123.42 193.69 1118.12 200.59 1108.53 200.59C1098.93 200.59 1093.63 193.69 1093.63 185.191C1093.63 176.791 1098.93 169.792 1108.53 169.792ZM1108.53 194.79C1113.53 194.79 1115.52 190.491 1115.52 185.291C1115.52 179.991 1113.53 175.791 1108.53 175.791C1103.53 175.791 1101.53 180.091 1101.53 185.291C1101.43 190.591 1103.53 194.79 1108.53 194.79Z" fill="white"/>
<path d="M1125.92 170.692H1139.92C1147.51 170.692 1151.41 173.192 1151.41 178.591C1151.41 183.391 1146.91 184.491 1146.91 184.491V184.791C1146.91 184.791 1152.21 185.891 1152.21 191.491C1152.21 197.09 1148.51 199.89 1140.72 199.89H1125.82L1125.92 170.692ZM1139.42 182.491C1142.22 182.491 1143.62 181.391 1143.62 179.391C1143.62 177.392 1142.52 176.292 1139.92 176.292H1133.72V182.491H1139.42ZM1133.72 187.491V194.191H1140.42C1142.92 194.191 1144.32 193.091 1144.32 190.791C1144.32 188.591 1142.62 187.391 1139.82 187.391L1133.72 187.491Z" fill="white"/>
<path d="M923.589 115.395C923.589 109.195 922.389 106.395 918.49 106.395C914.292 106.395 912.092 109.495 912.092 116.795V135.494H902.396V99.3957H911.793V105.295H912.092C912.092 105.295 914.492 98.3958 921.789 98.3958C927.587 98.3958 930.786 101.196 932.086 105.395L932.186 105.295H932.486C932.486 105.295 935.585 98.3958 942.882 98.3958C951.879 98.3958 954.378 104.995 954.378 113.295V135.494H944.682V115.395C944.682 109.195 943.482 106.395 939.583 106.395C935.385 106.395 933.185 109.495 933.185 116.795V135.494H923.489L923.589 115.395Z" fill="#D22027"/>
<path d="M975.971 98.3958C987.867 98.3958 994.365 106.895 994.365 117.495C994.365 128.094 987.867 136.594 975.971 136.594C964.075 136.594 957.577 128.094 957.577 117.495C957.577 106.895 964.075 98.3958 975.971 98.3958ZM975.971 129.294C982.169 129.294 984.668 123.994 984.668 117.495C984.668 110.995 982.169 105.695 975.971 105.695C969.773 105.695 967.274 110.995 967.274 117.495C967.274 124.094 969.773 129.294 975.971 129.294Z" fill="#D22027"/>
<path d="M997.464 99.4958H1014.86C1024.26 99.4958 1029.05 102.596 1029.05 109.195C1029.05 115.095 1023.46 116.495 1023.46 116.495V116.795C1023.46 116.795 1030.05 118.195 1030.05 125.094C1030.05 131.994 1025.55 135.494 1015.86 135.494H997.464V99.4958ZM1014.16 114.095C1017.66 114.095 1019.36 112.695 1019.36 110.295C1019.36 107.895 1017.96 106.495 1014.86 106.495H1007.26V114.095H1014.16ZM1007.26 120.295V128.594H1015.56C1018.66 128.594 1020.46 127.194 1020.46 124.394C1020.46 121.595 1018.36 120.195 1014.86 120.195H1007.26V120.295Z" fill="#D22027"/>
<path d="M1033.25 110.595C1033.85 101.396 1041.25 98.3958 1049.55 98.3958C1058.24 98.3958 1065.14 101.496 1065.14 110.895V135.594H1055.44V128.694H1055.14C1055.14 128.694 1052.95 136.694 1043.65 136.694C1037.05 136.694 1032.15 133.594 1032.15 126.994C1032.15 120.295 1037.75 117.195 1043.65 115.695C1049.65 114.195 1055.34 113.695 1055.34 109.695C1055.34 106.895 1053.25 105.195 1049.45 105.195C1045.25 105.195 1042.95 106.895 1042.85 110.795H1033.25V110.595ZM1047.85 120.295C1044.75 121.094 1042.05 122.694 1042.05 125.894C1042.05 128.694 1043.95 130.394 1047.15 130.394C1053.75 130.394 1055.44 122.794 1055.44 117.395C1053.85 118.795 1050.65 119.595 1047.85 120.295Z" fill="#D22027"/>
<path d="M1068.64 99.4958H1078.04V104.396H1078.34C1078.34 104.396 1081.44 98.4958 1089.43 98.4958C1099.83 98.4958 1105.03 107.495 1105.03 117.595C1105.03 127.694 1099.83 136.694 1089.43 136.694C1081.84 136.694 1078.64 131.794 1078.64 131.794H1078.34V148.093H1068.64V99.4958ZM1086.73 129.294C1092.63 129.294 1095.43 123.994 1095.43 117.495C1095.43 110.995 1092.63 105.695 1086.73 105.695C1080.84 105.695 1078.04 110.995 1078.04 117.495C1078.04 124.094 1080.84 129.294 1086.73 129.294Z" fill="#D22027"/>
<path d="M1108.23 99.4958H1117.92V112.695H1122.12C1132.22 112.695 1137.72 117.195 1137.72 124.194C1137.72 131.194 1132.12 135.694 1122.12 135.694H1108.23V99.4958ZM1117.92 119.595V128.594H1120.72C1125.92 128.594 1128.02 127.194 1128.02 124.094C1128.02 120.995 1125.92 119.595 1120.72 119.595H1117.92ZM1150.21 135.594H1140.52V99.4958H1150.21V135.594Z" fill="#D22027"/>
</svg>
