<svg width="1204" height="265" viewBox="0 0 1204 265" fill="none" xmlns="http://www.w3.org/2000/svg">
<path d="M1204 126.037V183.657C1204 228.497 1167.66 264.847 1122.84 264.847H81.1603C36.3367 264.847 0 228.497 0 183.657V126.037C0 81.1967 36.3367 44.8467 81.1603 44.8467H1122.84C1136.46 44.8467 1149.31 48.2067 1160.59 54.1467C1162.64 55.2267 1164.64 56.3867 1166.58 57.6367C1189.09 72.0667 1204 97.3067 1204 126.037Z" fill="#1F1E1E"/>
<path d="M1204 149.023V184.132C1200.65 189.193 1195.76 193.365 1189.61 195.97L1026.34 265H901.321L866.433 194.023L848.63 157.794L842.692 145.714C834.495 129.036 841.732 109.651 858.866 102.41L956.71 61.0445L1094.63 2.73169C1111.76 -4.50873 1132.3 3.13961 1140.49 19.8176L1146.42 31.8881L1164.23 68.1273L1166.58 72.9017L1204 149.023Z" fill="#D0D9DC"/>
<path d="M1146.42 31.9165L848.614 157.779L866.428 194.006L1164.24 68.1441L1146.42 31.9165Z" fill="#465B65"/>
<path d="M986.21 209.033L936.578 230.012C933.149 231.459 929.04 229.929 927.401 226.601C925.762 223.263 927.211 219.388 930.64 217.942L980.272 196.962C983.7 195.516 987.809 197.046 989.448 200.374C991.088 203.702 989.638 207.577 986.21 209.033Z" fill="#465B65"/>
<path d="M1035.31 217.442L948.453 254.163C945.025 255.609 940.916 254.079 939.277 250.751C937.637 247.414 939.087 243.539 942.516 242.092L1029.37 205.371C1032.8 203.925 1036.91 205.454 1038.55 208.783C1040.19 212.111 1038.74 215.995 1035.31 217.442Z" fill="#465B65"/>
<path d="M1103.29 203.294C1099.86 204.74 1095.75 203.211 1094.11 199.883C1093.57 198.789 1093.35 197.583 1093.47 196.406L1101.02 120.284C1101.45 116.687 1104.86 114.212 1108.62 114.75C1112.3 115.278 1114.99 118.486 1114.7 122.009L1107.16 198.13C1106.94 200.411 1105.47 202.376 1103.29 203.294Z" fill="#D22027"/>
<path d="M1073.07 172.312C1062.79 176.66 1050.47 172.071 1045.55 162.067C1040.63 152.064 1044.98 140.43 1055.25 136.082C1065.53 131.734 1077.86 136.323 1082.77 146.326C1087.69 156.329 1083.35 167.964 1073.07 172.312ZM1061.2 148.152C1057.77 149.598 1056.32 153.483 1057.96 156.811C1059.6 160.148 1063.71 161.678 1067.14 160.223C1070.57 158.776 1072.02 154.892 1070.38 151.564C1068.74 148.236 1064.62 146.706 1061.2 148.152Z" fill="#D22027"/>
<path d="M1152.92 182.315C1142.64 186.662 1130.32 182.074 1125.4 172.07C1120.48 162.067 1124.83 150.433 1135.1 146.085C1145.38 141.737 1157.71 146.326 1162.62 156.329C1167.54 166.332 1163.2 177.967 1152.92 182.315ZM1141.05 158.155C1137.62 159.601 1136.17 163.486 1137.81 166.814C1139.45 170.151 1143.56 171.681 1146.99 170.226C1150.42 168.779 1151.87 164.895 1150.23 161.567C1148.58 158.239 1144.47 156.709 1141.05 158.155Z" fill="#D22027"/>
<path d="M56.4594 101.296H71.6038C79.7808 101.296 84.0193 104.126 84.0193 110.106C84.0193 115.456 79.1711 116.716 79.1711 116.716V117.026C79.1711 117.026 84.9289 118.286 84.9289 124.576C84.9289 130.866 80.9904 134.016 72.5135 134.016H56.4594V101.296ZM70.994 114.516C74.0229 114.516 75.5324 113.256 75.5324 111.056C75.5324 108.856 74.3228 107.596 71.5938 107.596H64.9362V114.516H70.994ZM64.9362 120.176V127.726H72.2036C74.9326 127.726 76.4421 126.466 76.4421 123.946C76.4421 121.426 74.6227 120.166 71.5938 120.166H64.9362V120.176Z" fill="white"/>
<path d="M87.3481 101.296H95.825V113.246H99.4537C108.24 113.246 113.079 117.336 113.079 123.626C113.079 129.916 108.23 134.006 99.4537 134.006H87.3481V101.296ZM95.825 119.546V127.726H98.2441C102.782 127.726 104.602 126.466 104.602 123.636C104.602 120.806 102.782 119.546 98.2441 119.546H95.825ZM123.985 134.016H115.508V101.296H123.985V134.016Z" fill="white"/>
<path d="M155.783 123.326C155.783 127.096 153.364 134.966 140.948 134.966C131.862 134.966 126.714 130.876 126.714 124.586C126.714 112.316 146.696 115.466 146.696 110.116C146.696 108.106 144.877 106.346 141.548 106.346C135.79 106.346 135.79 110.746 135.79 110.746H127.613C127.613 107.596 129.733 100.366 141.538 100.366C150.015 100.366 155.163 104.456 155.163 110.116C155.163 122.386 135.181 117.916 135.181 124.906C135.181 126.796 136.39 128.996 140.938 128.996C147.596 128.996 147.596 123.336 147.596 123.336H155.783V123.326Z" fill="white"/>
<path d="M173.656 100.356C184.013 100.356 189.711 108.096 189.711 117.656C189.711 127.216 184.023 134.956 173.656 134.956C163.29 134.956 157.602 127.216 157.602 117.656C157.602 108.096 163.3 100.356 173.656 100.356ZM173.656 128.356C179.045 128.356 181.224 123.576 181.224 117.656C181.224 111.746 179.045 106.956 173.656 106.956C168.268 106.956 166.089 111.736 166.089 117.656C166.089 123.576 168.268 128.356 173.656 128.356Z" fill="white"/>
<path d="M223.928 130.246C223.928 139.686 219.08 146.286 208.184 146.286C193.649 146.286 193.349 134.966 193.349 134.966H201.826C201.826 134.966 202.126 139.686 208.184 139.686C213.572 139.686 215.451 136.536 215.451 130.876V129.306H215.151C215.151 129.306 212.422 133.706 205.765 133.706C196.678 133.706 192.14 125.526 192.14 117.036C192.14 108.546 196.678 100.366 205.765 100.366C212.732 100.366 215.451 105.716 215.451 105.716H215.751V101.316H223.928V130.246ZM208.184 106.966C203.036 106.966 200.617 111.746 200.617 117.036C200.617 122.326 203.036 127.106 208.184 127.106C213.332 127.106 215.751 122.326 215.751 117.036C215.751 111.746 213.332 106.966 208.184 106.966Z" fill="white"/>
<path d="M247.25 121.116H235.444V134.016H226.967V101.296H235.444V114.196H247.25V101.296H255.727V134.016H247.25V121.116Z" fill="white"/>
<path d="M258.755 101.296H267.232V113.246H270.861C279.648 113.246 284.486 117.336 284.486 123.626C284.486 129.916 279.638 134.006 270.861 134.006H258.745V101.296H258.755ZM267.232 119.546V127.726H269.651C274.19 127.726 276.009 126.466 276.009 123.636C276.009 120.806 274.19 119.546 269.651 119.546H267.232ZM295.392 134.016H286.915V101.296H295.392V134.016Z" fill="white"/>
<path d="M327.8 134.016H319.623V128.666H319.323C319.323 128.666 316.594 134.956 309.637 134.956C300.85 134.956 298.431 128.976 298.431 121.426V101.296H306.908V119.546C306.908 125.206 308.417 127.726 312.356 127.726C316.894 127.726 319.323 124.896 319.323 118.286V101.296H327.8V134.016ZM301.46 95.6365H324.781V98.1565H301.46V95.6365Z" fill="white"/>
<path d="M356.57 93.5867H367.796V110.047L382.64 93.5867H395.875L380.151 109.497L396.675 134.347H382.96L372.374 117.337L367.806 121.967V134.357H356.58V93.5867H356.57Z" fill="#D22027"/>
<path d="M406.711 112.007H424.275C423.795 105.577 421.226 100.637 414.728 100.637C406.711 100.637 406.301 108.477 406.301 108.477H395.076C395.076 108.477 396.275 92.4065 414.728 92.4065C428.363 92.4065 435.581 102.047 435.581 113.967C435.581 125.877 428.363 135.527 414.728 135.527C396.275 135.527 395.076 119.457 395.076 119.457H406.301C406.301 119.457 406.701 127.297 414.728 127.297C421.466 127.297 424.115 121.967 424.355 115.147H406.711V112.007Z" fill="#D22027"/>
<path d="M474.896 116.317C474.896 123.377 476.336 126.507 480.754 126.507C485.563 126.507 488.132 122.977 488.132 114.747V93.5767H499.357V134.337H488.531V127.677H488.132C488.132 127.677 485.323 135.517 476.906 135.517C470.168 135.517 466.639 132.457 464.95 127.677H464.47C464.47 127.677 460.862 135.517 452.435 135.517C442.008 135.517 439.199 128.067 439.199 118.667V93.5867H450.425V116.317C450.425 123.377 451.865 126.507 456.283 126.507C461.091 126.507 463.66 122.977 463.66 114.747V93.5767H474.896V116.317Z" fill="#D22027"/>
<path d="M506.185 109.657C506.185 83.3966 518.94 79.4766 530.566 79.4766H545.89V88.4966H529.606C520.54 88.4966 517.171 92.4166 515.811 101.037H516.211C516.211 101.037 519.82 94.7666 529.446 94.7666C541.882 94.7666 549.099 103.787 549.099 115.147C549.099 126.117 541.882 135.527 527.837 135.527C516.611 135.527 506.185 129.247 506.185 109.657ZM527.847 127.287C534.984 127.287 537.873 121.717 537.873 115.137C537.873 108.557 534.984 102.987 527.847 102.987C520.71 102.987 517.821 108.557 517.821 115.137C517.821 121.727 520.71 127.287 527.847 127.287Z" fill="#D22027"/>
<path d="M573.17 92.4065C586.885 92.4065 593.223 102.047 593.223 113.967C593.223 114.907 593.143 116.316 593.143 116.316H563.624C564.104 122.586 566.833 127.286 573.57 127.286C580.388 127.286 581.587 121.017 581.587 121.017H592.813C592.813 121.017 590.404 135.517 573.161 135.517C559.126 135.517 552.308 125.877 552.308 113.957C552.318 102.047 559.455 92.4065 573.17 92.4065ZM563.944 109.267H581.667C580.948 104.247 578.699 100.647 573.161 100.647C567.633 100.637 564.914 104.247 563.944 109.267Z" fill="#D22027"/>
<path d="M596.842 93.5867H608.068V110.047L622.912 93.5867H636.147L620.423 109.497L636.947 134.347H623.232L612.646 117.337L608.078 121.967V134.357H596.852V93.5867H596.842Z" fill="#D22027"/>
<path d="M58.5286 183.136H70.7741C77.3817 183.136 80.8104 185.346 80.8104 189.996C80.8104 194.166 76.8918 195.136 76.8918 195.136V195.386C76.8918 195.386 81.5401 196.366 81.5401 201.266C81.5401 206.166 78.3613 208.616 71.5038 208.616H58.5286V183.136ZM70.2843 193.426C72.7334 193.426 73.9529 192.446 73.9529 190.736C73.9529 189.016 72.9733 188.046 70.7741 188.046H65.3861V193.436H70.2843V193.426ZM65.3861 197.836V203.716H71.2639C73.4631 203.716 74.6927 202.736 74.6927 200.776C74.6927 198.816 73.2232 197.836 70.7741 197.836H65.3861Z" fill="white"/>
<path d="M95.2651 183.136H101.873V187.296H102.123C102.123 187.296 104.322 182.396 109.96 182.396C117.057 182.396 119.016 187.046 119.016 192.926V208.606H112.159V194.396C112.159 189.986 110.939 188.026 107.751 188.026C104.082 188.026 102.123 190.226 102.123 195.376V208.606H95.2651V183.136Z" fill="white"/>
<path d="M134.201 182.406C142.578 182.406 147.176 188.436 147.176 195.876C147.176 203.326 142.568 209.346 134.201 209.346C125.834 209.346 121.226 203.316 121.226 195.876C121.226 188.426 125.824 182.406 134.201 182.406ZM134.201 204.207C138.559 204.207 140.319 200.486 140.319 195.876C140.319 191.266 138.559 187.547 134.201 187.547C129.843 187.547 128.083 191.266 128.083 195.876C128.083 200.486 129.843 204.207 134.201 204.207Z" fill="white"/>
<path d="M149.385 183.136H156.243V193.426L165.3 183.136H173.377L163.78 193.086L173.866 208.616H165.489L159.022 197.986L156.233 200.876V208.616H149.375V183.136H149.385Z" fill="white"/>
<path d="M190.53 209.357C188.521 215.187 185.882 218.177 180.734 218.177C178.285 218.177 176.326 217.447 176.326 217.447V211.816C176.326 211.816 177.795 212.307 179.514 212.307C181.963 212.307 182.943 210.987 183.923 208.637L173.637 183.156H180.984L187.202 199.967L192.25 183.156H199.597L190.53 209.357Z" fill="white"/>
<path d="M201.306 183.136H207.914V187.296H208.164C208.164 187.296 210.363 182.396 216.001 182.396C223.098 182.396 225.058 187.046 225.058 192.926V208.606H218.2V194.396C218.2 189.986 216.981 188.026 213.792 188.026C210.123 188.026 208.164 190.226 208.164 195.376V208.606H201.306V183.136Z" fill="white"/>
<path d="M227.517 183.136H234.374V193.426L243.431 183.136H251.508L241.912 193.086L251.998 208.616H243.621L237.153 197.986L234.364 200.876V208.616H227.507V183.136H227.517Z" fill="white"/>
<path d="M252.738 190.977C253.127 184.457 258.366 182.406 264.243 182.406C270.361 182.406 275.259 184.617 275.259 191.227V208.617H268.402V203.717H268.162C268.162 203.717 266.593 209.346 260.085 209.346C255.437 209.346 252.008 207.187 252.008 202.487C252.008 197.737 255.926 195.577 260.135 194.497C264.393 193.417 268.412 193.077 268.412 190.237C268.412 188.227 266.942 187.057 264.253 187.057C261.314 187.057 259.695 188.237 259.605 190.977H252.738ZM263.024 197.837C260.815 198.377 258.955 199.507 258.955 201.757C258.955 203.717 260.325 204.936 262.534 204.936C267.182 204.936 268.412 199.547 268.412 195.777C267.282 196.807 264.983 197.347 263.024 197.837Z" fill="white"/>
<path d="M290.454 190.486L295.102 183.136H303.179L294.362 195.386L303.909 208.616H295.832L290.444 200.286L285.056 208.616H276.979L286.525 195.386L277.708 183.136H285.785L290.454 190.486Z" fill="white"/>
<path d="M727.984 95.4065L643.625 264.847H604.289L696.465 79.7065L724.915 93.8765L727.984 95.4065Z" fill="white"/>
<path d="M840.263 44.8467L730.733 264.847H639.796L724.915 93.8767L749.336 44.8467H840.263Z" fill="#D22027"/>
</svg>
