<svg width="1204" height="265" viewBox="0 0 1204 265" fill="none" xmlns="http://www.w3.org/2000/svg">
<path d="M1204 125.57V183.19C1204 228.03 1167.66 264.38 1122.84 264.38H81.1603C80.1907 264.38 79.2211 264.36 78.2614 264.32C75.2225 264.22 72.2136 263.95 69.2647 263.51C64.6364 262.83 60.138 261.76 55.7996 260.33C51.3013 258.86 46.9828 257 42.8743 254.79C32.0883 249.01 22.7717 240.87 15.6043 231.05C14.3148 229.3 13.1052 227.5 11.9656 225.64C10.846 223.82 9.79643 221.94 8.81679 220.02C3.17885 208.97 0 196.45 0 183.19V125.57C0 124.48 0.02 123.39 0.0699818 122.31C0.42985 113.1 2.32915 104.28 5.51799 96.0999C7.33732 91.4099 9.5965 86.9299 12.2255 82.7099C19.4229 71.1299 29.4592 61.5099 41.3549 54.8099C41.7148 54.6099 42.0746 54.3999 42.4445 54.2099C44.5537 53.0499 46.7129 51.9999 48.9321 51.0399C51.1113 50.0899 53.3305 49.2399 55.6097 48.4899C63.6368 45.8199 72.2336 44.3799 81.1603 44.3799H1122.84C1136.46 44.3799 1149.31 47.7399 1160.59 53.6799C1162.64 54.7599 1164.64 55.9199 1166.58 57.1699C1189.09 71.5999 1204 96.8399 1204 125.57Z" fill="#1F1E1E"/>
<path d="M323.512 160.248L24.2012 179.884L21.5022 227.396L314.445 208.182L323.512 160.248Z" fill="#D22027"/>
<path d="M51.8511 41.9756L223.798 30.7002L234.364 166.097L36.9465 179.049L51.8511 41.9756Z" fill="#E7E9ED"/>
<path d="M224.718 42.4706L223.798 30.7002L51.8511 41.9756L50.5515 53.8927L224.718 42.4706Z" fill="#CDD2D9"/>
<path d="M38.236 167.123L36.9365 179.04L234.354 166.088L233.435 154.317L38.236 167.123Z" fill="#CDD2D9"/>
<path d="M234.354 166.097L223.788 30.7002L189.121 32.9736C187.202 36.5946 186.162 40.6739 186.502 44.9824L196.148 168.608L234.354 166.097Z" fill="#CDD2D9"/>
<path d="M348.992 158.571L344.014 94.7868C343.664 90.3041 341.945 86.014 339.046 82.4022L298.031 31.2962C295.422 28.0511 291.214 26.2636 286.855 26.5477L211.063 31.5163C204.025 31.9746 198.737 37.6215 199.247 44.13L208.894 167.756L348.992 158.571Z" fill="#D22027"/>
<path d="M207.964 155.985L348.073 146.791L348.992 158.561L208.884 167.756L207.964 155.985Z" fill="#D22027"/>
<path d="M323.512 160.248L307.977 161.266L303.089 197.09L22.1819 215.516L21.5121 227.396L314.455 208.182L323.512 160.248Z" fill="#D22027"/>
<path d="M307.977 161.266L348.992 158.58L347.153 135.03L311.236 137.386L307.977 161.266Z" fill="#D22027"/>
<path d="M361.728 157.736L349.052 241.403L300.18 244.612L292.973 245.079L276.719 246.152L259.895 247.252L243.061 248.361L226.817 249.425L219.61 249.892L147.346 254.641L140.139 255.108L123.875 256.181L107.081 257.281H107.001L90.227 258.381L73.973 259.453L66.7656 259.921L55.7996 260.645C51.3013 259.297 46.9828 257.592 42.8743 255.566C32.0883 250.268 22.7717 242.806 15.6043 233.804C14.3148 232.2 13.1052 230.55 11.9656 228.845C12.8753 228.249 13.9549 227.882 15.1345 227.8L21.5121 227.378L64.0166 224.591L71.214 224.124H71.224L87.478 223.051L121.126 220.851C121.126 220.851 121.126 220.851 121.136 220.851L137.38 219.778L144.587 219.311L216.851 214.572L224.058 214.095L240.312 213.032L257.086 211.932L273.96 210.822L290.224 209.759L295.352 209.42L297.431 209.282L314.455 208.173L320.973 160.404L322.602 148.469L348.073 146.791C355.11 146.333 361.218 151.228 361.728 157.736Z" fill="white"/>
<path d="M147.346 254.64C145.867 258.133 143.897 261.396 141.498 264.357H81.1604C80.1907 264.357 79.2211 264.339 78.2614 264.302C75.2225 264.211 72.2136 263.963 69.2647 263.56C68.375 262.396 67.5353 261.176 66.7656 259.92C63.5968 254.75 61.5875 248.856 61.0977 242.54C60.6079 236.215 61.6775 230.128 64.0166 224.6V224.591C65.9359 220.026 68.7149 215.846 72.1836 212.225C79.6609 204.414 90.317 199.208 102.463 198.41C114.608 197.612 125.964 201.38 134.571 208.136C138.569 211.271 141.968 215.048 144.587 219.311C147.756 224.481 149.765 230.366 150.255 236.691C150.745 243.017 149.675 249.103 147.346 254.64Z" fill="#666E79"/>
<path d="M124.774 238.369C125.534 248.123 117.597 256.593 107.051 257.28C96.5047 257.968 87.3281 250.625 86.5684 240.871C85.8086 231.118 93.7457 222.648 104.292 221.96C114.848 221.263 124.015 228.615 124.774 238.369Z" fill="#AAB2BD"/>
<path d="M300.18 244.612C296.762 252.734 290.614 259.655 282.717 264.357H265.843C264.353 264.623 262.824 264.807 261.275 264.907C257.856 265.137 254.507 264.935 251.288 264.357H234.424C228.327 260.736 223.208 255.777 219.61 249.892C216.441 244.722 214.432 238.837 213.942 232.511C213.452 226.195 214.522 220.108 216.851 214.572C217.081 214.012 217.331 213.462 217.6 212.921C217.61 212.894 217.62 212.866 217.63 212.839C217.89 212.298 218.16 211.757 218.45 211.226C218.72 210.712 219.01 210.199 219.32 209.695C219.36 209.612 219.41 209.53 219.46 209.456C219.7 209.053 219.95 208.659 220.2 208.265C220.289 208.136 220.369 208.017 220.449 207.889C220.669 207.559 220.899 207.229 221.129 206.908C221.179 206.825 221.239 206.752 221.299 206.67C221.429 206.495 221.559 206.321 221.679 206.147C221.929 205.808 222.179 205.478 222.459 205.148C222.909 204.57 223.378 204.002 223.878 203.452C224.248 203.03 224.628 202.609 225.018 202.205C232.485 194.395 243.151 189.179 255.297 188.381C267.442 187.584 278.808 191.352 287.415 198.108C291.414 201.243 294.812 205.02 297.431 209.282C297.431 209.282 297.431 209.282 297.431 209.291C300.6 214.462 302.609 220.347 303.099 226.663C303.589 232.988 302.519 239.075 300.18 244.612Z" fill="#666E79"/>
<path d="M277.619 228.34C278.378 238.094 270.441 246.564 259.895 247.252C249.349 247.939 240.172 240.597 239.413 230.843C238.653 221.089 246.59 212.619 257.136 211.932C267.692 211.244 276.859 218.587 277.619 228.34Z" fill="#AAB2BD"/>
<path d="M230.686 118.997L319.843 113.148L318.464 95.4833L282.947 50.4734L225.628 54.2319L230.686 118.997Z" fill="#E7E9ED"/>
<path d="M32.748 43.2223L236.534 29.8569L234.694 6.30688L37.2764 19.2598L32.748 43.2223Z" fill="white"/>
<path d="M103.832 216.075C89.7872 217.001 79.1811 228.304 80.1907 241.293C81.2003 254.283 93.4559 264.092 107.501 263.166C121.546 262.24 132.152 250.937 131.142 237.947C130.132 224.967 117.887 215.149 103.832 216.075ZM106.591 251.395C99.5636 251.854 93.4459 246.949 92.936 240.459C92.4262 233.969 97.7343 228.313 104.752 227.845C111.779 227.387 117.897 232.291 118.407 238.782C118.917 245.281 113.618 250.937 106.591 251.395Z" fill="#010101"/>
<path d="M256.676 206.046C242.631 206.972 232.025 218.275 233.035 231.265C234.044 244.254 246.3 254.063 260.345 253.137C274.39 252.211 284.996 240.908 283.986 227.919C282.977 214.938 270.731 205.13 256.676 206.046ZM259.435 241.367C252.408 241.825 246.29 236.921 245.78 230.431C245.27 223.94 250.578 218.284 257.596 217.817C264.623 217.359 270.741 222.263 271.251 228.753C271.761 235.252 266.463 240.908 259.435 241.367Z" fill="#010101"/>
<path d="M232.375 201.719L229.506 201.912L225.018 202.205C224.628 202.609 224.248 203.03 223.878 203.452C223.378 204.002 222.909 204.57 222.459 205.148C222.179 205.478 221.929 205.808 221.679 206.147C221.559 206.321 221.429 206.495 221.299 206.67C221.239 206.752 221.179 206.825 221.129 206.908C220.899 207.229 220.669 207.559 220.449 207.889C220.369 208.017 220.29 208.136 220.2 208.265C219.95 208.659 219.7 209.053 219.46 209.456C219.41 209.53 219.36 209.612 219.32 209.695C219.01 210.199 218.72 210.712 218.45 211.226C218.16 211.757 217.89 212.298 217.631 212.839C217.621 212.867 217.61 212.894 217.6 212.922C217.331 213.462 217.081 214.012 216.851 214.572L224.058 214.095C226.647 209.181 230.426 204.891 235.094 201.545L235.104 201.536L232.375 201.719ZM102.003 192.525C85.9586 193.57 72.1836 201.417 63.6967 212.784L72.1836 212.225L82.2799 211.565C88.0378 207.449 95.1253 204.809 102.922 204.295C110.72 203.782 118.147 205.478 124.485 208.796L134.571 208.136L143.058 207.577C132.881 197.439 118.047 191.471 102.003 192.525ZM207.094 62.6838L205.615 43.7173L199.247 44.1299V44.139L200.697 62.6838L207.964 155.985L211.883 155.729L213.312 155.637L214.332 155.573V155.564L207.094 62.6838ZM207.094 62.6838L205.615 43.7173L199.247 44.1299V44.139L200.697 62.6838L207.964 155.985L211.883 155.729L213.312 155.637L214.332 155.573V155.564L207.094 62.6838ZM102.003 192.525C85.9586 193.57 72.1836 201.417 63.6967 212.784L72.1836 212.225L82.2799 211.565C88.0378 207.449 95.1253 204.809 102.922 204.295C110.72 203.782 118.147 205.478 124.485 208.796L134.571 208.136L143.058 207.577C132.881 197.439 118.047 191.471 102.003 192.525ZM232.375 201.719L229.506 201.912L225.018 202.205C224.628 202.609 224.248 203.03 223.878 203.452C223.378 204.002 222.909 204.57 222.459 205.148C222.179 205.478 221.929 205.808 221.679 206.147C221.559 206.321 221.429 206.495 221.299 206.67C221.239 206.752 221.179 206.825 221.129 206.908C220.899 207.229 220.669 207.559 220.449 207.889C220.369 208.017 220.29 208.136 220.2 208.265C219.95 208.659 219.7 209.053 219.46 209.456C219.41 209.53 219.36 209.612 219.32 209.695C219.01 210.199 218.72 210.712 218.45 211.226C218.16 211.757 217.89 212.298 217.631 212.839C217.621 212.867 217.61 212.894 217.6 212.922C217.331 213.462 217.081 214.012 216.851 214.572L224.058 214.095C226.647 209.181 230.426 204.891 235.094 201.545L232.375 201.719ZM102.003 192.525C85.9586 193.57 72.1836 201.417 63.6967 212.784L72.1836 212.225L82.2799 211.565C88.0378 207.449 95.1253 204.809 102.922 204.295C110.72 203.782 118.147 205.478 124.485 208.796L134.571 208.136L143.058 207.577C132.881 197.439 118.047 191.471 102.003 192.525ZM207.094 62.6838L205.615 43.7173L199.247 44.1299V44.139L200.697 62.6838L207.964 155.985L211.883 155.729L213.312 155.637L214.332 155.573V155.564L207.094 62.6838ZM354.071 141.575L350.382 94.3649C349.942 88.7547 347.793 83.4012 344.174 78.8911L331.159 62.6838L303.149 27.7851C299.221 22.89 292.963 20.2315 286.395 20.6624L242.441 23.5408L240.612 0L31.8484 13.6955L25.0509 49.6484L44.7437 48.3558L44.1339 53.9477L44.4938 53.9844L40.955 84.5563L40.7951 84.5379L39.5456 96.0333L12.2255 97.8209C9.5965 101.689 7.33732 105.796 5.51799 110.095L38.256 107.95L35.657 131.785L0.0699818 134.122C0.02 135.112 0 136.111 0 137.111V145.957L34.3575 143.702L31.1186 173.503L18.1234 174.356L15.4244 221.869L14.6846 221.914C12.5254 222.061 10.5362 222.694 8.81679 223.693C9.79643 225.453 10.846 227.176 11.9656 228.845C13.1052 230.55 14.3148 232.2 15.6043 233.804L15.5943 233.694L55.4797 231.072C54.72 234.922 54.4101 238.882 54.73 242.962C55.0399 247.032 55.9696 250.919 57.3191 254.622L42.8743 255.566C46.9828 257.592 51.3013 259.297 55.7996 260.645C60.138 261.956 64.6364 262.937 69.2647 263.56C72.2136 263.963 75.2225 264.211 78.2614 264.302C76.682 262.808 75.2525 261.186 73.973 259.453C70.3043 254.466 67.9652 248.554 67.4654 242.118C66.9655 235.692 68.355 229.541 71.214 224.124H71.224C73.803 219.201 77.6017 214.902 82.2799 211.565C88.0378 207.449 95.1253 204.809 102.922 204.295C110.72 203.782 118.147 205.478 124.485 208.796C129.623 211.491 134.041 215.25 137.38 219.778C137.38 219.778 137.38 219.778 137.38 219.788C141.048 224.765 143.388 230.678 143.887 237.113C144.387 243.539 142.998 249.69 140.139 255.108C138.339 258.527 135.95 261.653 133.101 264.357H149.136C150.015 263.037 150.825 261.672 151.565 260.278L216.301 256.025C218.55 259.077 221.179 261.873 224.108 264.357H251.288C241.232 262.561 232.455 257.088 226.817 249.424C223.148 244.438 220.809 238.534 220.31 232.099C219.81 225.673 221.199 219.522 224.058 214.104V214.095C226.647 209.181 230.426 204.891 235.094 201.545L235.104 201.536C240.862 197.42 247.959 194.78 255.757 194.267C263.554 193.763 270.981 195.449 277.319 198.768H277.329C282.477 201.472 286.895 205.23 290.224 209.759C293.883 214.746 296.222 220.658 296.722 227.085C297.221 233.511 295.832 239.662 292.973 245.079C287.825 254.86 277.918 262.212 265.843 264.357H293.023C297.721 260.37 301.6 255.585 304.419 250.249L354.67 246.949L368.056 158.561L368.095 157.315C367.496 149.651 361.648 143.527 354.071 141.575ZM287.315 32.442C289.504 32.2953 291.593 33.1845 292.903 34.8162L315.265 62.6838L333.918 85.9221C336.097 88.6264 337.387 91.8349 337.647 95.1991L340.785 135.442L341.245 141.327L316.914 142.922L316.104 148.89L315.285 154.867L308.787 155.289L233.905 160.202L214.792 161.458L214.332 155.573V155.564L207.094 62.6838L205.615 43.7173C205.355 40.4722 208.014 37.6396 211.523 37.4105L224.258 36.5763L287.315 32.442ZM40.4452 36.7963L42.7044 24.815L228.786 12.6138L229.706 24.3842L40.4452 36.7963ZM44.7037 166.702L55.6097 66.4515L57.0192 53.471L57.6689 47.5033L186.902 39.033L193.589 38.593C193.019 40.4814 192.71 42.4798 192.88 44.5515L194.289 62.6838L201.596 156.407L202.056 162.292L195.689 162.714L44.0539 172.651L44.7037 166.702ZM155.863 248.159C156.623 244.318 156.943 240.349 156.623 236.279C156.303 232.2 155.383 228.313 154.024 224.609L208.334 221.053C207.564 224.894 207.254 228.863 207.564 232.933C207.884 237.003 208.814 240.89 210.163 244.593L155.863 248.159ZM300.73 203.15C299.271 201.169 297.651 199.299 295.902 197.549C285.716 187.41 270.881 181.442 254.837 182.496C238.793 183.551 225.028 191.397 216.531 202.755C215.061 204.717 213.752 206.78 212.612 208.934L147.896 213.178C146.437 211.198 144.817 209.319 143.058 207.577C132.881 197.439 118.047 191.471 102.003 192.525C85.9586 193.57 72.1836 201.417 63.6967 212.784C62.2173 214.737 60.9177 216.808 59.7782 218.963L28.2597 221.025L28.5996 215.085L30.2789 185.393L307.158 167.224H307.168L313.655 166.802L308.777 202.627L300.73 203.15ZM343.435 235.857L308.697 238.131C309.467 234.29 309.777 230.32 309.467 226.25C309.147 222.18 308.217 218.293 306.868 214.581L320.133 213.719L327.47 159.982L328.28 154.015L348.533 152.685C351.851 152.465 354.78 154.647 355.29 157.635L343.435 235.857Z" fill="#010101"/>
<path d="M324.701 93.384L286.015 44.3682L218.8 48.7775L224.768 125.303L326.661 118.621L324.701 93.384ZM313.016 107.685L236.594 112.699L232.465 59.7137L279.888 56.6061L312.236 97.6008L313.016 107.685Z" fill="#010101"/>
<path d="M225.698 137.074L263.904 134.571L264.823 146.342L226.617 148.844L225.698 137.074Z" fill="#010101"/>
<path d="M612.846 112.24C612.846 89.0501 624.182 85.5901 634.518 85.5901H648.133V93.5501H633.658C625.601 93.5501 622.602 97.0101 621.393 104.63H621.753C621.753 104.63 624.962 99.0901 633.519 99.0901C644.574 99.0901 650.992 107.05 650.992 117.09C650.992 126.78 644.574 135.09 632.099 135.09C622.113 135.09 612.846 129.55 612.846 112.24ZM632.099 127.82C638.447 127.82 641.016 122.9 641.016 117.09C641.016 111.27 638.447 106.36 632.099 106.36C625.751 106.36 623.182 111.27 623.182 117.09C623.182 122.9 625.751 127.82 632.099 127.82Z" fill="white"/>
<path d="M654.201 98.05H664.187V111.2H668.466C678.802 111.2 684.51 115.7 684.51 122.62C684.51 129.54 678.802 134.04 668.466 134.04H654.201V98.05ZM664.187 118.13V127.13H667.036C672.384 127.13 674.524 125.74 674.524 122.63C674.524 119.51 672.384 118.13 667.036 118.13H664.187ZM697.345 134.05H687.359V98.05H697.345V134.05Z" fill="white"/>
<path d="M719.097 97.01C735.501 97.01 736.571 111.2 736.571 111.2H726.585C726.585 111.2 726.225 104.28 719.097 104.28C712.75 104.28 710.54 109.54 710.54 116.05C710.54 122.56 712.75 127.82 719.097 127.82C726.225 127.82 726.585 120.9 726.585 120.9H736.571C736.571 120.9 735.501 135.09 719.097 135.09C706.972 135.09 700.554 126.57 700.554 116.05C700.554 105.53 706.972 97.01 719.097 97.01Z" fill="white"/>
<path d="M761.522 113.97C761.522 107.74 760.242 104.97 756.314 104.97C752.035 104.97 749.756 108.09 749.756 115.35V134.04H739.77V98.04H749.396V103.92H749.756C749.756 103.92 752.255 97 759.742 97C765.73 97 768.939 99.77 770.369 103.99L770.439 103.92H770.798C770.798 103.92 774.007 97 781.494 97C790.761 97 793.26 103.58 793.26 111.88V134.03H783.274V113.95C783.274 107.72 781.994 104.95 778.066 104.95C773.787 104.95 771.508 108.07 771.508 115.33V134.02H761.522V113.97Z" fill="white"/>
<path d="M796.819 98.05H806.445V102.9H806.805C806.805 102.9 810.014 97.02 818.211 97.02C828.907 97.02 834.255 106.02 834.255 116.06C834.255 126.1 828.907 135.1 818.211 135.1C810.364 135.1 807.155 130.25 807.155 130.25H806.795V146.52H796.809V98.05H796.819ZM815.362 127.82C821.42 127.82 824.279 122.56 824.279 116.05C824.279 109.54 821.43 104.28 815.362 104.28C809.294 104.28 806.445 109.54 806.445 116.05C806.445 122.56 809.304 127.82 815.362 127.82Z" fill="white"/>
<path d="M837.464 109.13C838.034 99.92 845.661 97.02 854.218 97.02C863.135 97.02 870.262 100.14 870.262 109.48V134.06H860.276V127.14H859.916C859.916 127.14 857.637 135.1 848.15 135.1C841.373 135.1 836.384 132.05 836.384 125.41C836.384 118.69 842.092 115.65 848.22 114.12C854.428 112.6 860.266 112.11 860.266 108.1C860.266 105.26 858.126 103.6 854.208 103.6C849.929 103.6 847.58 105.26 847.43 109.14H837.464V109.13ZM852.439 118.82C849.23 119.58 846.521 121.17 846.521 124.36C846.521 127.13 848.52 128.86 851.729 128.86C858.506 128.86 860.286 121.24 860.286 115.91C858.646 117.37 855.297 118.13 852.439 118.82Z" fill="white"/>
<path d="M906.989 134.05H897.002V120.9H889.875L883.957 134.05H872.761L880.318 119.17C876.04 117.23 873.831 113.84 873.831 109.48C873.831 102.56 879.539 98.0601 889.875 98.0601H906.989V134.05ZM897.012 113.97V104.97H891.304C885.956 104.97 883.817 106.35 883.817 109.47C883.817 112.59 885.956 113.97 891.304 113.97H897.012Z" fill="white"/>
<path d="M853.278 205.42C853.278 216.63 847.28 224.48 833.775 224.48C815.772 224.48 815.402 211.02 815.402 211.02H825.898C825.898 211.02 826.278 216.63 833.775 216.63C840.453 216.63 842.772 212.89 842.772 206.16V204.29H842.392C842.392 204.29 839.013 209.52 830.766 209.52C819.521 209.52 813.893 199.8 813.893 189.71C813.893 179.62 819.521 169.9 830.766 169.9C839.393 169.9 842.772 176.25 842.772 176.25H843.152V171.02H853.278V205.42ZM833.785 177.76C827.408 177.76 824.409 183.44 824.409 189.72C824.409 196 827.408 201.68 833.785 201.68C840.163 201.68 843.162 196 843.162 189.72C843.162 183.44 840.153 177.76 833.785 177.76Z" fill="#D22027"/>
<path d="M876.54 169.91C889.365 169.91 896.412 179.11 896.412 190.47C896.412 201.83 889.365 211.03 876.54 211.03C863.714 211.03 856.667 201.83 856.667 190.47C856.657 179.1 863.714 169.91 876.54 169.91ZM876.54 203.17C883.217 203.17 885.916 197.49 885.916 190.46C885.916 183.43 883.217 177.75 876.54 177.75C869.862 177.75 867.163 183.43 867.163 190.46C867.163 197.49 869.862 203.17 876.54 203.17Z" fill="#D22027"/>
<path d="M918.914 169.91C936.168 169.91 937.288 185.24 937.288 185.24H926.791C926.791 185.24 926.422 177.76 918.914 177.76C912.237 177.76 909.918 183.44 909.918 190.47C909.918 197.5 912.247 203.18 918.914 203.18C926.412 203.18 926.791 195.7 926.791 195.7H937.288C937.288 195.7 936.158 211.03 918.914 211.03C906.159 211.03 899.411 201.83 899.411 190.47C899.421 179.1 906.169 169.91 918.914 169.91Z" fill="#D22027"/>
<path d="M963.548 188.22C963.548 181.49 962.198 178.5 958.07 178.5C953.572 178.5 951.172 181.86 951.172 189.71V209.89H940.676V171.02H950.803V177.37H951.182C951.182 177.37 953.811 169.89 961.679 169.89C967.976 169.89 971.355 172.88 972.855 177.44L972.924 177.36H973.304C973.304 177.36 976.683 169.88 984.56 169.88C994.307 169.88 996.936 176.98 996.936 185.95V209.87H986.44V188.19C986.44 181.46 985.09 178.47 980.962 178.47C976.463 178.47 974.064 181.83 974.064 189.68V209.86H963.558V188.22H963.548Z" fill="#D22027"/>
<path d="M1001.05 182.99C1001.65 173.05 1009.68 169.91 1018.68 169.91C1028.05 169.91 1035.55 173.27 1035.55 183.37V209.91H1025.06V202.43H1024.69C1024.69 202.43 1022.29 211.03 1012.31 211.03C1005.18 211.03 999.935 207.74 999.935 200.56C999.935 193.31 1005.93 190.02 1012.39 188.37C1018.92 186.73 1025.07 186.2 1025.07 181.87C1025.07 178.8 1022.82 177.01 1018.69 177.01C1014.19 177.01 1011.71 178.8 1011.56 182.99H1001.05ZM1016.81 193.45C1013.43 194.27 1010.58 195.99 1010.58 199.43C1010.58 202.42 1012.68 204.29 1016.06 204.29C1023.19 204.29 1025.06 196.07 1025.06 190.31C1023.34 191.89 1019.81 192.71 1016.81 193.45Z" fill="#D22027"/>
<path d="M1039.31 171.03H1058.06C1068.19 171.03 1073.44 174.39 1073.44 181.5C1073.44 187.86 1067.44 189.35 1067.44 189.35V189.72C1067.44 189.72 1074.57 191.22 1074.57 198.69C1074.57 206.17 1069.69 209.9 1059.19 209.9H1039.32V171.03H1039.31ZM1057.31 186.73C1061.06 186.73 1062.94 185.24 1062.94 182.62C1062.94 180 1061.44 178.51 1058.06 178.51H1049.82V186.73H1057.31ZM1049.82 193.45V202.42H1058.81C1062.19 202.42 1064.06 200.92 1064.06 197.93C1064.06 194.94 1061.81 193.44 1058.06 193.44H1049.82V193.45Z" fill="#D22027"/>
<path d="M1077.57 171.03H1088.06V186.73L1101.94 171.03H1114.31L1099.61 186.21L1115.06 209.91H1102.24L1092.34 193.69L1088.06 198.1V209.91H1077.57V171.03Z" fill="#D22027"/>
<path d="M1116.19 182.99C1116.79 173.05 1124.82 169.91 1133.82 169.91C1143.19 169.91 1150.69 173.27 1150.69 183.37V209.91H1140.19V202.43H1139.82C1139.82 202.43 1137.42 211.03 1127.45 211.03C1120.32 211.03 1115.07 207.74 1115.07 200.56C1115.07 193.31 1121.07 190.02 1127.53 188.37C1134.06 186.73 1140.2 186.2 1140.2 181.87C1140.2 178.8 1137.95 177.01 1133.83 177.01C1129.33 177.01 1126.85 178.8 1126.7 182.99H1116.19ZM1131.95 193.45C1128.57 194.27 1125.72 195.99 1125.72 199.43C1125.72 202.42 1127.82 204.29 1131.2 204.29C1138.32 204.29 1140.19 196.07 1140.19 190.31C1138.47 191.89 1134.95 192.71 1131.95 193.45Z" fill="#D22027"/>
<path d="M494.159 94.94L570.981 264.38H606.798L522.859 79.24L496.958 93.41L494.159 94.94Z" fill="#D22027"/>
<path d="M391.917 44.3799L491.66 264.38H574.47L496.958 93.4099L474.717 44.3799H391.917Z" fill="white"/>
</svg>
